M48
;
;    PCBFab2Solidwork
;    Copyright (C) 2018  NhatKhai L. Nguyen
;
;    Please check LICENSE file for detail.
;
;DRILL file {PCBnew (2011-04-29 BZR 2986)-stable} date 8/3/2011 4:45:25 PM
;FORMAT={-:-/ absolute / inch / decimal}
FMAT,2
INCH,TZ
%
T1C.008F000S000
X110350Y105729
X111000Y105489
X111200Y105249
X111450Y105009
X112950Y105729
X113600Y105489
X113800Y105249
X114050Y105009
X145432Y101839
X146532Y101889
X149132Y101889
X155950Y102750
X155950Y102400
X155950Y101300
X159500Y102850
X159500Y102050
X186850Y100450
X187050Y101850
X187190Y102820
X187250Y103800
X121350Y106279
X121050Y110100
X120650Y106509
X120650Y109819
X120450Y106739
X120450Y109349
X120250Y107429
X119892Y110479
X119800Y108950
X119502Y110050
X119300Y107199
X119050Y106279
X118350Y109609
X118350Y106509
X118150Y106739
X118150Y109349
X117950Y107429
X117950Y110709
X117500Y108899
X117250Y110039
X117102Y107199
X116882Y109819
X116350Y109609
X116050Y106699
X115750Y106250
X114462Y106699
X113600Y107779
X113400Y108199
X113400Y105969
X112950Y107359
X112600Y107139
X111902Y106699
X111000Y107779
X110800Y108200
X110800Y105969
X110600Y108950
X110350Y107300
X107600Y109800
X107300Y109350
X106750Y108000
X106400Y107750
X105500Y112950
X107100Y114800
X107300Y110800
X109672Y112749
X110002Y115400
X110700Y113650
X111000Y113150
X111400Y111900
X111850Y114400
X112250Y114800
X112800Y112450
X113100Y111450
X113550Y110800
X116850Y111950
X117600Y111300
X118600Y111309
X119250Y113550
X119400Y111550
X119600Y115650
X120250Y110750
X121300Y112200
X138882Y114989
X143782Y113289
X145832Y114989
X146082Y114739
X146482Y114239
X150582Y115489
X150732Y113689
X150732Y114589
X154122Y111569
X154122Y112049
X154362Y114129
X154442Y112449
X154442Y111809
X154442Y114449
X154522Y114769
X154682Y115009
X147482Y120939
X146300Y121000
X144382Y119839
X144332Y118789
X144282Y116939
X144232Y119339
X143932Y118789
X143932Y117889
X143232Y121639
X143000Y116300
X142882Y119289
X142532Y122039
X140442Y119529
X140000Y117850
X138882Y116739
X134282Y122489
X132782Y121089
X130482Y122039
X130432Y119689
X130432Y120389
X130082Y119139
X130032Y121889
X129432Y119039
X110400Y116000
X128982Y127139
X129732Y124839
X129982Y125689
X130432Y126089
X130532Y126689
X130732Y125389
X176032Y139009
X176032Y140509
X181715Y145256
X181590Y146110
X181515Y145006
X181515Y147306
X181450Y146470
X181365Y144756
X181360Y147600
X181330Y146970
X181330Y145850
X181015Y144506
X180850Y144250
X179720Y149100
X179400Y148940
X179160Y148700
X178280Y145180
T2C.01F095S300
X102000Y098250
X103000Y098250
X104000Y098250
X105000Y098250
X106000Y098250
X107000Y098250
X108000Y098250
X109000Y098250
X110000Y098250
X111000Y098250
X112000Y098250
X113000Y098250
X114000Y098250
X115000Y098250
X116000Y098250
X117000Y098250
X118000Y098250
X119000Y098250
X120000Y098250
X121000Y098250
X121000Y099350
X122000Y098250
X123000Y098250
X124000Y098250
X125000Y098250
X126000Y098250
X127000Y098250
X128000Y098250
X129000Y098250
X130000Y098250
X131000Y098250
X132000Y098250
X133000Y098250
X134000Y098250
X135000Y098250
X136000Y098250
X137000Y098250
X138000Y098250
X139000Y098250
X140000Y098250
X141000Y098250
X142000Y098250
X143000Y098250
X144000Y098250
X145000Y098250
X150000Y098250
X151000Y098250
X152000Y098250
X153000Y098250
X153900Y100600
X154000Y098250
X154250Y100300
X154400Y099800
X155000Y098250
X156000Y098250
X157000Y098250
X157650Y100450
X157650Y099950
X158000Y098250
X158150Y100450
X158150Y099950
X159000Y098250
X159500Y100650
X159600Y098700
X160000Y098250
X161000Y098250
X162000Y098250
X163000Y098250
X164000Y098250
X165000Y098250
X166000Y098250
X167000Y098250
X168000Y098250
X169000Y098250
X170000Y098250
X171000Y098250
X172000Y098250
X173000Y098250
X174000Y098250
X175000Y098250
X176000Y098250
X177000Y098250
X178000Y098250
X179000Y098250
X180000Y098250
X181000Y098250
X181300Y100650
X181700Y099850
X181700Y100350
X182000Y098250
X183000Y098250
X184000Y098250
X185000Y098250
X185100Y100450
X185100Y099950
X185600Y100450
X185600Y099950
X186000Y098250
X186350Y100600
X186800Y098650
X187000Y098250
X188000Y098250
X189000Y098250
X190000Y098250
X191000Y098250
X192000Y098250
X193000Y098250
X196750Y102000
X196750Y103000
X187700Y102820
X187450Y101350
X185350Y101200
X185350Y101700
X185350Y102200
X185350Y102700
X185350Y103200
X185100Y101700
X185100Y102200
X185100Y102450
X185100Y103200
X185100Y101200
X184850Y102700
X184850Y103200
X184850Y102200
X184850Y101700
X184850Y101200
X183450Y102400
X183400Y101050
X183300Y101450
X182900Y102650
X181900Y101450
X181900Y103050
X181900Y102250
X173782Y103139
X169982Y102589
X169382Y101789
X168850Y102300
X168750Y102650
X167350Y102650
X167050Y102250
X166300Y102400
X163400Y102750
X159962Y102929
X159900Y101800
X157900Y101450
X157900Y102450
X157900Y101950
X157900Y102950
X157650Y101450
X157650Y101950
X157650Y102450
X157650Y102950
X157400Y101950
X157400Y102450
X157400Y101450
X157400Y102950
X155800Y101700
X154500Y103000
X154500Y102200
X154500Y101400
X151640Y101580
X151640Y102780
X145300Y103240
X141050Y102700
X137000Y101800
X136000Y101800
X135000Y101800
X134000Y101800
X133000Y101800
X132000Y101800
X131000Y101800
X130000Y101800
X129000Y101800
X128000Y101800
X120982Y100989
X098250Y102000
X098250Y103000
X098250Y105000
X098250Y104000
X098250Y107000
X098250Y106000
X098250Y108000
X123850Y106050
X128400Y106050
X132150Y106050
X135250Y106200
X141050Y103750
X146300Y107700
X146450Y107100
X146550Y107950
X146650Y107400
X147732Y108089
X147800Y107250
X147860Y104090
X147900Y107650
X148590Y103250
X148660Y107220
X150050Y108089
X151000Y103260
X152032Y107889
X153950Y107200
X154382Y107889
X154500Y103800
X156600Y106650
X157050Y106650
X157150Y107900
X157400Y103450
X157500Y106650
X157650Y103450
X157650Y104450
X157650Y104950
X157900Y103450
X158120Y106150
X158950Y104550
X160150Y103950
X160150Y107900
X160510Y106150
X164300Y108100
X164732Y108189
X165282Y105489
X165300Y108100
X166482Y104239
X166500Y106890
X167400Y104400
X167750Y107400
X168232Y103689
X168232Y107389
X168400Y103350
X168732Y103739
X168732Y107389
X169250Y107390
X169700Y104400
X169732Y105489
X171932Y108089
X172300Y103739
X172900Y104900
X172932Y107689
X173282Y107389
X173300Y104450
X181300Y107350
X181900Y103850
X183002Y107249
X183800Y106350
X184200Y106350
X184600Y106350
X184682Y108209
X184850Y103700
X185100Y104950
X185100Y103700
X185100Y104450
X185200Y105800
X185350Y103700
X186122Y107729
X186220Y108220
X186850Y104200
X187882Y105969
X188762Y106689
X189402Y107649
X196750Y105000
X196750Y107000
X196750Y104000
X196750Y106000
X196750Y108000
X196750Y109000
X196750Y110000
X189880Y108300
X188762Y108769
X188200Y110540
X185482Y110529
X184762Y108689
X183002Y108689
X172432Y108639
X168932Y108639
X164732Y110339
X163732Y109889
X162932Y108639
X162132Y109689
X161732Y109739
X161232Y109839
X160582Y109439
X160432Y110289
X160182Y110589
X159500Y108280
X159132Y109289
X158482Y109239
X155600Y109750
X154400Y110039
X153932Y109477
X153632Y109280
X153482Y110489
X152150Y110650
X152082Y109189
X151550Y109300
X151500Y110250
X150750Y110250
X150250Y109650
X149932Y109839
X149850Y109240
X149782Y110289
X149440Y109180
X149082Y109889
X148870Y109380
X148732Y109739
X148550Y109150
X148290Y109770
X147932Y109139
X147500Y109150
X146300Y110400
X145800Y110400
X145800Y109100
X144732Y109150
X144200Y109200
X144082Y109789
X143600Y109650
X143500Y110100
X143162Y109089
X142842Y109329
X142202Y110449
X141640Y109870
X141250Y108750
X113382Y108949
X098250Y110000
X098250Y109000
X098250Y111000
X098250Y112000
X098250Y113000
X121050Y110800
X121150Y113100
X141750Y112850
X141982Y112439
X142632Y111539
X142832Y112089
X143432Y112839
X143500Y111600
X144232Y110789
X145432Y111139
X145450Y113100
X146550Y111139
X146550Y112600
X147500Y111450
X147682Y112789
X148100Y111350
X148282Y113089
X149282Y111439
X150682Y110839
X152000Y113200
X152200Y112810
X152232Y111489
X153482Y110839
X159582Y111089
X159932Y111439
X161000Y111850
X161500Y112070
X162482Y112739
X163782Y111889
X164782Y112689
X165282Y111889
X166032Y112369
X166882Y113089
X181242Y112289
X182842Y111569
X182842Y113089
X184042Y112289
X184602Y111569
X184602Y112529
X184682Y112129
X186122Y112049
X186220Y112540
X188602Y111169
X188602Y113009
X189722Y112609
X190042Y111569
X196750Y111000
X196750Y111750
X196750Y113000
X196750Y114000
X196750Y115000
X188282Y114849
X185642Y113649
X185482Y114849
X185242Y114049
X183482Y114369
X182922Y114769
X180400Y113409
X170032Y115689
X169982Y114089
X169982Y114889
X168482Y114089
X168432Y114889
X168432Y115689
X166132Y115039
X165732Y114089
X165082Y113729
X164932Y115739
X164882Y114839
X164282Y113989
X164082Y115339
X163782Y113339
X162982Y114049
X161632Y113839
X152332Y114589
X152150Y113560
X151782Y115439
X151082Y113889
X147600Y114700
X147600Y113700
X147600Y115450
X146682Y115389
X145200Y115250
X143800Y115250
X143432Y113639
X141600Y115550
X140432Y113389
X140332Y114989
X138932Y113389
X116900Y113800
X098250Y115000
X098250Y114000
X098250Y118000
X098250Y117000
X098250Y116000
X111800Y117750
X114950Y118100
X140432Y116739
X141732Y116389
X142082Y117689
X144732Y115889
X146232Y117989
X146932Y116589
X147082Y117989
X147182Y116289
X147532Y117589
X147582Y116839
X147832Y117789
X147882Y117189
X148550Y116550
X149132Y117139
X149532Y118039
X150232Y117489
X152232Y115939
X152332Y118189
X152382Y117439
X153582Y115889
X155932Y117189
X156382Y117439
X157157Y116764
X158882Y117089
X159882Y116839
X163282Y116589
X163532Y117789
X163832Y117439
X164582Y115989
X164842Y117249
X165642Y116839
X165932Y117489
X165932Y117989
X167250Y118000
X169002Y116239
X173782Y117039
X174032Y116089
X174332Y116489
X174682Y115750
X190040Y115900
X196750Y116000
X196750Y117000
X196750Y118000
X196750Y119000
X196750Y120000
X180900Y119800
X170880Y120320
X168482Y120039
X167232Y118589
X167100Y119750
X166950Y118250
X166632Y119389
X166282Y119089
X159632Y119439
X157722Y120689
X157382Y119439
X157082Y120689
X156950Y120000
X156500Y119500
X155700Y119900
X155632Y118939
X154532Y120289
X154532Y119389
X153732Y119789
X153400Y118350
X153020Y120450
X152350Y118550
X152340Y119800
X151230Y119850
X150840Y119840
X149982Y119039
X149682Y119339
X149232Y118289
X148670Y119840
X148632Y118689
X148282Y119189
X147432Y119489
X147432Y119039
X146232Y119639
X145032Y119889
X143750Y119600
X143100Y119900
X143082Y119539
X142582Y119609
X141790Y119980
X141650Y118930
X139082Y119789
X139032Y119039
X138882Y120439
X138682Y118539
X137432Y119789
X137432Y119039
X137182Y120439
X132282Y119450
X131482Y120739
X125550Y120700
X124900Y119950
X123250Y119100
X119750Y118750
X118250Y118900
X116300Y119750
X116300Y118700
X115900Y120700
X113850Y118600
X113600Y118350
X113100Y120700
X111050Y120150
X109850Y120700
X098250Y120000
X098250Y119000
X098250Y122000
X098250Y121000
X098250Y123000
X111850Y122200
X113800Y122550
X121100Y122500
X122650Y121150
X126982Y122839
X128032Y122839
X128732Y123189
X128982Y121239
X129232Y123089
X130582Y121239
X131932Y122539
X132650Y123200
X133650Y123200
X138843Y122870
X138900Y120800
X139043Y121870
X140132Y122239
X141000Y120750
X141332Y122589
X142350Y120900
X143232Y122589
X143332Y121039
X143750Y120900
X144432Y122189
X145132Y121939
X145132Y121639
X145132Y123139
X146400Y121850
X146720Y121440
X146882Y123139
X147520Y122080
X147840Y121280
X148282Y120939
X148582Y121289
X149482Y121339
X149732Y120989
X150250Y121850
X151040Y120970
X153282Y121089
X154832Y121089
X154882Y121889
X155750Y121900
X157440Y121980
X159031Y120789
X166482Y120789
X171402Y123169
X178442Y122129
X179000Y123020
X182400Y120900
X186350Y121700
X196750Y121000
X196750Y122000
X196750Y123000
X196750Y124000
X196750Y125000
X190650Y124360
X185250Y125350
X179400Y124620
X179080Y124060
X176440Y124289
X176040Y123420
X173482Y125489
X173162Y125169
X172762Y124849
X170882Y123789
X170700Y125489
X169882Y124289
X169382Y123489
X169132Y125139
X168842Y124049
X168362Y124209
X168350Y124650
X159550Y125500
X158782Y125739
X156600Y125200
X155782Y124889
X153550Y124250
X152782Y123989
X144440Y123500
X144032Y123539
X140443Y125320
X140432Y124389
X140282Y123439
X139843Y125320
X139443Y123970
X136300Y123800
X135750Y125200
X134750Y125200
X133650Y124150
X133282Y123339
X132650Y124150
X132132Y124789
X131182Y123289
X131032Y124289
X130832Y123989
X130312Y123279
X129882Y123989
X129282Y124789
X128732Y125139
X128032Y125189
X127582Y125189
X127000Y125700
X126982Y125189
X124200Y125100
X124150Y124250
X124150Y123450
X122550Y124250
X121850Y124850
X121500Y125650
X121350Y123400
X118120Y125580
X116700Y124500
X115200Y123600
X114950Y123400
X112250Y123450
X098250Y125000
X098250Y124000
X098250Y127000
X098250Y126000
X098250Y128000
X098250Y129000
X098250Y129750
X099500Y129500
X100500Y129500
X101500Y129500
X102500Y129500
X103500Y129500
X104500Y129500
X105500Y129500
X106500Y129500
X107500Y129500
X108500Y129500
X109500Y129500
X110500Y129500
X111500Y129500
X112500Y129500
X113500Y129500
X114500Y129500
X115500Y129500
X116500Y129500
X117240Y125900
X117500Y129500
X118500Y129500
X119150Y127800
X119500Y129500
X120500Y129500
X120500Y128250
X121350Y128450
X121500Y129500
X122500Y129500
X122732Y130589
X123500Y129500
X124250Y125900
X125000Y129500
X125050Y127800
X126000Y129500
X127000Y129500
X127450Y126200
X128000Y129500
X128050Y126150
X128240Y128640
X128932Y126139
X128960Y128640
X129000Y129500
X129760Y128640
X130000Y129500
X130560Y128640
X131000Y129500
X131750Y129500
X131932Y126189
X132032Y126689
X132382Y126189
X132500Y129500
X132732Y126189
X133500Y129500
X134050Y126150
X134250Y129500
X135613Y127328
X137282Y127339
X137932Y126139
X144440Y125820
X152800Y128950
X153550Y127750
X155800Y129000
X156482Y130189
X156550Y127750
X156882Y130739
X158782Y128989
X159550Y127800
X167232Y130489
X167532Y130739
X167982Y126339
X169060Y127240
X169830Y130639
X170032Y126339
X170982Y126339
X170982Y130639
X171600Y125800
X171982Y126339
X173282Y127739
X173282Y130089
X173800Y125800
X175382Y129532
X176050Y129750
X176950Y129450
X176950Y127850
X178650Y130100
X179400Y130500
X179750Y129950
X180450Y129950
X182400Y126950
X182650Y130500
X186350Y126750
X189632Y128239
X190782Y127639
X191850Y129200
X196750Y128000
X196750Y126000
X196750Y127000
X196750Y129000
X196750Y130000
X196750Y131000
X196750Y132000
X196750Y133000
X184382Y132439
X184382Y132939
X183500Y133000
X183000Y133000
X182650Y131300
X182500Y133000
X182000Y133000
X181500Y133000
X181000Y133000
X180500Y133000
X180450Y131400
X180000Y133000
X179750Y131000
X178650Y131800
X178650Y132800
X178650Y130900
X175832Y130900
X175110Y130780
X174750Y132750
X173310Y130930
X172700Y132600
X170632Y130900
X164332Y132489
X162442Y131889
X161832Y132339
X161182Y132189
X160782Y133239
X158032Y132689
X158032Y131939
X158032Y131189
X156882Y133039
X154982Y131589
X154282Y132089
X154282Y132589
X154282Y131089
X152682Y132739
X144632Y131889
X144282Y131089
X144082Y132589
X143450Y132350
X140982Y132589
X140982Y131839
X140982Y131089
X139882Y131439
X139882Y132989
X138132Y131589
X137232Y132089
X137232Y131089
X137232Y132589
X135682Y132739
X128400Y132950
X128282Y131889
X127560Y131100
X127332Y132389
X126700Y132100
X126282Y133239
X124400Y131050
X123932Y132589
X123932Y131039
X123932Y131839
X122732Y132989
X121182Y131589
X120232Y132089
X120232Y132589
X120232Y131089
X118682Y132639
X118732Y135689
X124382Y134939
X124632Y134039
X124932Y135039
X125280Y134320
X125932Y134039
X125932Y135289
X126582Y133889
X126782Y135139
X127282Y133839
X127332Y135389
X127882Y133689
X129432Y134439
X129882Y135489
X139300Y134550
X141382Y134939
X141832Y134989
X141832Y134539
X142200Y134650
X142982Y133339
X142982Y135389
X143450Y135250
X143582Y133989
X144082Y135389
X144282Y133989
X144632Y135189
X145000Y134450
X145082Y133989
X146582Y135489
X156300Y134100
X158632Y135389
X158682Y133689
X158682Y134689
X159082Y135489
X159432Y133939
X159782Y135589
X161182Y134939
X161332Y133689
X161782Y135189
X161802Y133649
X162442Y133729
X162682Y133989
X164282Y135489
X164332Y133389
X168800Y134000
X169200Y134000
X169600Y134000
X170500Y134450
X170650Y133900
X170900Y135450
X174100Y134500
X174600Y134000
X176500Y133750
X176500Y134150
X176500Y133450
X180000Y134000
X180000Y133500
X180500Y134000
X180500Y133500
X181000Y133500
X181000Y134000
X181500Y133500
X181500Y134000
X182000Y133500
X182000Y134000
X182500Y133500
X182500Y134000
X183000Y134500
X183000Y134000
X183000Y135000
X183000Y133500
X183000Y135500
X183500Y135000
X183500Y134000
X183500Y133500
X183500Y134500
X183500Y135500
X184382Y134939
X184382Y133939
X184382Y134439
X184382Y133439
X184382Y135439
X196750Y134000
X196750Y135000
X196750Y136000
X196750Y137000
X196750Y138000
X184382Y135939
X184372Y136489
X184362Y136989
X184352Y137989
X184342Y137489
X183500Y136000
X183500Y136500
X183500Y137500
X183500Y137000
X183500Y138000
X183000Y138000
X183000Y137500
X183000Y137000
X183000Y136500
X183000Y136000
X181600Y136750
X181600Y137800
X181600Y137450
X181600Y137100
X181600Y136450
X179450Y136400
X176600Y136300
X176300Y137350
X176300Y137800
X175335Y137486
X175300Y135800
X174350Y137650
X168950Y136450
X164282Y137009
X162782Y136989
X159680Y136400
X159150Y136100
X158782Y136439
X155382Y135789
X155382Y136239
X155082Y136939
X155032Y135789
X155032Y136239
X154682Y136239
X154182Y136239
X154182Y136489
X153682Y136239
X153682Y136489
X153182Y136489
X152832Y135789
X152782Y136939
X152782Y136489
X152432Y136939
X152432Y136489
X145150Y135950
X144982Y136989
X142720Y136320
X142000Y136400
X141832Y136089
X141650Y137000
X138382Y135839
X138382Y136189
X138082Y136839
X138032Y135839
X138032Y136189
X137682Y136189
X137182Y136189
X137182Y136539
X136682Y136539
X136682Y136189
X136182Y136539
X135832Y136539
X135832Y136989
X135732Y135889
X135482Y136989
X135482Y136539
X129832Y136989
X128250Y137000
X126320Y137280
X125632Y136189
X124900Y136100
X124682Y136439
X124632Y135789
X121432Y136389
X121432Y135989
X121082Y135989
X121082Y136839
X121082Y136389
X120682Y136389
X120182Y136389
X119682Y136389
X119182Y136389
X118782Y136939
X118782Y136389
X118432Y136389
X118432Y136939
X121632Y140189
X122200Y139600
X123182Y139289
X123382Y140189
X124682Y139689
X126682Y138989
X126682Y140489
X127282Y140639
X127332Y139139
X128132Y138639
X128132Y140439
X128450Y139700
X129832Y140739
X129832Y139239
X138982Y140189
X139850Y139750
X140132Y139289
X140432Y140189
X141432Y140689
X141482Y139689
X143082Y139739
X143432Y138639
X143650Y140650
X144082Y139139
X144400Y140650
X144982Y140739
X144982Y138639
X145150Y139700
X146582Y139239
X155982Y140189
X157432Y140189
X158432Y139289
X159482Y140089
X160632Y140139
X160750Y139500
X161782Y139289
X162732Y138789
X164332Y140289
X164332Y139389
X172050Y138550
X173300Y140100
X178280Y139580
X178520Y140140
X179000Y138380
X180150Y139020
X180150Y139920
X183632Y138739
X185182Y138739
X188550Y140550
X189350Y139300
X196750Y139000
X197000Y140000
X197000Y141000
X197000Y142000
X197000Y143000
X191950Y142350
X190450Y141500
X190150Y141800
X188550Y141800
X184900Y143200
X182600Y142860
X181800Y141340
X178830Y140940
X173300Y142200
X173300Y141150
X170682Y142289
X165000Y143100
X164682Y142849
X164522Y141729
X164282Y142389
X162682Y140889
X161832Y141339
X161782Y142289
X161482Y140789
X161132Y142039
X160782Y140789
X160432Y141589
X159982Y142589
X159132Y141089
X158782Y142989
X158432Y140839
X158282Y142339
X157950Y141150
X157632Y142589
X157432Y140939
X156282Y142539
X155982Y140939
X155682Y143189
X155682Y142289
X146582Y142239
X144650Y140939
X144400Y142450
X143850Y142100
X142482Y142889
X141782Y141139
X141182Y143189
X140932Y141139
X140632Y142539
X140432Y140939
X138982Y140939
X138682Y143189
X138682Y142239
X138682Y140939
X129782Y142239
X127332Y142089
X126682Y141939
X126232Y141189
X125532Y142839
X125182Y142189
X124482Y140939
X124132Y143189
X123982Y141189
X123582Y142539
X123382Y140939
X121632Y141689
X121632Y142189
X121632Y140939
X121582Y143189
X106832Y143339
X128282Y143739
X129932Y143739
X145040Y143750
X145332Y145339
X145632Y145039
X145982Y144689
X146530Y145689
X157632Y143839
X162122Y143889
X162632Y144209
X162950Y144400
X163232Y144950
X164400Y143889
X165400Y145500
X165582Y143420
X165832Y143889
X166082Y144189
X166332Y144439
X166582Y144689
X166932Y144939
X167182Y145189
X169350Y145200
X171400Y145180
X171962Y143489
X174040Y145340
X174520Y145660
X174920Y144940
X175160Y145580
X176320Y143440
X177880Y145500
X178410Y143390
X178615Y144800
X178741Y143502
X178941Y145502
X179000Y144800
X179600Y143380
X179891Y145252
X179940Y143400
X182442Y144689
X183350Y143400
X184900Y143700
X186550Y144200
X187050Y144200
X187200Y143500
X187550Y144200
X195132Y145339
X197000Y145000
X197000Y144000
X196750Y147000
X196750Y148000
X181100Y146550
X180775Y148126
X179915Y145956
X179210Y146850
X178950Y146200
X178650Y146900
X178220Y146940
X177960Y145860
X177800Y146950
X176440Y146860
X176280Y146540
X176200Y145980
X175960Y146260
X175640Y145900
X175160Y145980
X166280Y146460
X165320Y148220
X165080Y145820
X164680Y146140
X164360Y146460
X164120Y146780
X163480Y147500
X163400Y147100
X162360Y146780
X161320Y147740
X159880Y148140
X140932Y145989
X140632Y146289
X129932Y147789
X129382Y147539
X129032Y146839
X128682Y146589
X122732Y148039
X113282Y146989
X109632Y146939
X106332Y147489
X105832Y147489
X105382Y145789
X105382Y146789
X105200Y147950
X104582Y147589
X104032Y147939
X103790Y145800
X102350Y146550
X102332Y147939
X101850Y146800
X100582Y145789
X100232Y145939
X100600Y148550
X102350Y148790
X103982Y149939
X104232Y148989
X104600Y151050
X104860Y149020
X105850Y151050
X106850Y151050
X107330Y148980
X107350Y149790
X109332Y152039
X109600Y148300
X110132Y149789
X113350Y148300
X113582Y149789
X123500Y151200
X123732Y148289
X124100Y152550
X128032Y149020
X129082Y151289
X129482Y152389
X129982Y152389
X130982Y152389
X131782Y151739
X132582Y150000
X132732Y150989
X133130Y151687
X133482Y151389
X133500Y150500
X134230Y150000
X134232Y150989
X136832Y150389
X137500Y152000
X138650Y150250
X140500Y152500
X140732Y151489
X141760Y149820
X142532Y152689
X154100Y151150
X157560Y150860
X162120Y150860
X165720Y148300
X166040Y148620
X166040Y150620
X166360Y149020
X166520Y150940
X167000Y151260
X167240Y149020
X167560Y149340
X167960Y149660
X168360Y149980
X168760Y150300
X171400Y150140
X172680Y150620
X173000Y150940
X173320Y151260
X173802Y151409
X176842Y151409
X177520Y149360
X178000Y150880
X178480Y151680
X178920Y150220
X179600Y151120
X179991Y148702
X180842Y150929
X182452Y151419
X184042Y150929
X189322Y151329
X190800Y152000
X193000Y152000
X196750Y150000
X196750Y149000
X196750Y151000
X196750Y152000
X196750Y153000
X193000Y156750
X192000Y156750
X191000Y156750
X190000Y156750
X189000Y156750
X188000Y156750
X187000Y156750
X186000Y156750
X185000Y156750
X184000Y156750
X183000Y156750
X182000Y156750
X181040Y154320
X181000Y156750
X180000Y156750
X179000Y156750
X178000Y156750
X177000Y156750
X176000Y156750
X175000Y156750
X174000Y156750
X173920Y155040
X173000Y156750
X172000Y156750
X171000Y156750
X170000Y156750
X169000Y156750
X168000Y156750
X166000Y156750
X165400Y155420
X165000Y156750
X164000Y156750
X163000Y156750
X162922Y155729
X162000Y156750
X161000Y156750
X160000Y156750
X159000Y156750
X158000Y156750
X157000Y156750
X156000Y156750
X155000Y156750
X154000Y156750
X153000Y156750
X152000Y156750
X151000Y156750
X150000Y156750
X145000Y156750
X144000Y156750
X143632Y153939
X143000Y156750
X142000Y156750
X141000Y156750
X140782Y153639
X140210Y153260
X140000Y156750
X140000Y154500
X139332Y156489
X138000Y156750
X135000Y156750
X134000Y156750
X133000Y156750
X132000Y156750
X131482Y155289
X131000Y156750
X130782Y153989
X130332Y153989
X130000Y156750
X129532Y154589
X129082Y153939
X129000Y156750
X128932Y155689
X128000Y156750
X127382Y153889
X127000Y156750
X126000Y156750
X125000Y156750
X124000Y156750
X123000Y156750
X122000Y156750
X121000Y156750
X119000Y156750
X118000Y156750
X117000Y156750
X116000Y156750
X115000Y156750
X114000Y156750
X113000Y156750
X112000Y156750
X111000Y156750
X110000Y156750
X109000Y156750
X108000Y156750
X107000Y156750
X106000Y156750
X105000Y156750
X104000Y156750
T3C.022F197S550
X129682Y107989
X144500Y102000
X145940Y103800
X156550Y100500
X158132Y109839
X158850Y100050
X167500Y110000
X167700Y101550
X184050Y100550
X186150Y099950
X166500Y111000
X166500Y112000
X140000Y112500
X135100Y121700
X134650Y121100
X132850Y119300
X132450Y119900
X127900Y120500
X124500Y121950
X124500Y122650
X123700Y119600
X122000Y119950
X119800Y122150
X118950Y121250
X116700Y121850
X113300Y119800
X114050Y125050
X115350Y127250
X118250Y123650
X119650Y126050
X119700Y124250
X122400Y126650
X126100Y123350
X126750Y126700
X131582Y127689
X133032Y127689
X133750Y126700
X135713Y126128
X170135Y140446
X141200Y149550
X140150Y150750
X131832Y152389
X117482Y150739
X112500Y151300
X109582Y140189
X133382Y155389
T4C.032F197S550
X183113Y128050
X183113Y127263
X183900Y128050
X183900Y127263
X187163Y127263
X187163Y128050
X187950Y127263
X187950Y128050
T5C.038F197S550
X107500Y104000
X108500Y104000
X109500Y104000
X110500Y104000
X111500Y104000
X113500Y104000
X114500Y104000
X115500Y104000
X116500Y104000
X117500Y104000
X122000Y104000
X122000Y105000
X123000Y104000
X123000Y105000
X124000Y104000
X124000Y105000
X125000Y104000
X125000Y105000
X126000Y104000
X126000Y105000
X127000Y104000
X127000Y105000
X128000Y104000
X128000Y105000
X129000Y104000
X129000Y105000
X130000Y104000
X130000Y105000
X131000Y104000
X131000Y105000
X132000Y104000
X132000Y105000
X133000Y104000
X133000Y105000
X134000Y104000
X134000Y105000
X135000Y104000
X135000Y105000
X136000Y104000
X136000Y105000
X137000Y104000
X137000Y105000
X143000Y105000
X144000Y105000
X145000Y105000
X146000Y105000
X147000Y105000
X148000Y105000
X149000Y105000
X150000Y105000
X151000Y105000
X152000Y105000
X152000Y106000
X151000Y106000
X150000Y106000
X149000Y106000
X148000Y106000
X147000Y106000
X146000Y106000
X145000Y106000
X144000Y106000
X143000Y106000
X132000Y108000
X132000Y109000
X132000Y110000
X132000Y111000
X132000Y112000
X132000Y113000
X131000Y109000
X131000Y111000
X131000Y108000
X131000Y112000
X131000Y110000
X131000Y113000
X131000Y114000
X131000Y115000
X131000Y116000
X131000Y117000
X132000Y116000
X132000Y115000
X132000Y117000
X132000Y114000
X167882Y121639
X167882Y122639
X168882Y121639
X168882Y122639
X169882Y121639
X169882Y122639
X170882Y121639
X170882Y122639
X171882Y121639
X171882Y122639
X171882Y128350
X171882Y129350
X170882Y128350
X170882Y129350
X169882Y128350
X169882Y129350
X168882Y128350
X168882Y129350
X167882Y128350
X167882Y129350
X181064Y152880
X182048Y152880
X182836Y152880
X183820Y152880
T6C.04F139S550
X160900Y102050
X160900Y103231
X162081Y102050
X162081Y103231
X171000Y103138
X171000Y101957
X171000Y100776
X171000Y105500
X171000Y104319
X175000Y101957
X175000Y100776
X175000Y103138
X175000Y105500
X175000Y104319
X179000Y103138
X179000Y101957
X179000Y100776
X179000Y105500
X179000Y104319
X188350Y103231
X188350Y102050
X189531Y102050
X189531Y103231
X192823Y109409
X192823Y110590
X192823Y111771
X191642Y110590
X191642Y111771
X191642Y109409
X122500Y110095
X122500Y108914
X122500Y112457
X122500Y111276
X115500Y112457
X115500Y111276
X115500Y110095
X115500Y108914
X108500Y110095
X108500Y112457
X108500Y111276
X108500Y108914
X103240Y112220
X103240Y111039
X103240Y113401
X108500Y113638
X108500Y114819
X108500Y116000
X115500Y114819
X115500Y116000
X115500Y113638
X122500Y113638
X122500Y114819
X122500Y116000
X193000Y115860
X193000Y117041
X193000Y120860
X193000Y122041
X193000Y123222
X193000Y124403
X193000Y125584
X193000Y126765
X166500Y152500
X165500Y152500
X164500Y152500
X163500Y152500
X162500Y152500
X161500Y152500
X160500Y152500
X159500Y152500
X158500Y152500
X157500Y152500
X156500Y152500
X155500Y152500
X154500Y152500
X137500Y153000
X136319Y153000
X135138Y153000
X133957Y153000
X112319Y154950
X113500Y154950
X119107Y154190
X120288Y154190
X121469Y154190
X122650Y154190
X133957Y154181
X135138Y154181
X136319Y154181
X137500Y154181
X154500Y153500
X155500Y153500
X156500Y153500
X157500Y153500
X158500Y153500
X159500Y153500
X160500Y153500
X161500Y153500
X162500Y153500
X163500Y153500
X164500Y153500
X165500Y153500
X166500Y153500
X173842Y153409
X174842Y153409
X175842Y153409
X176842Y153409
X186362Y153489
X187362Y153489
X188362Y153489
X189362Y153489
X190362Y153489
X191362Y153489
T7C.04F139S550
X162451Y100869
X162451Y104412
X189901Y100869
X189901Y104412
X193193Y108228
X193193Y112952
X138681Y154551
X132776Y154551
T8C.05F107S550
X104010Y109858
X109270Y107733
X116270Y107733
X123270Y107733
X171770Y106681
X171770Y099595
X175770Y099595
X175770Y106681
X179770Y106681
X179770Y099595
X192230Y114679
X192230Y118222
X192230Y119679
X123270Y117181
X116270Y117181
X109270Y117181
X104010Y114582
X111138Y154180
X114681Y154180
X117926Y153420
X123831Y153420
X192230Y127927
T9C.055F107S550
X114482Y133189
X116647Y133189
X131482Y133189
X133647Y133189
X148482Y133189
X150647Y133189
X150647Y134839
X150647Y136489
X148482Y134839
X148482Y136489
X133647Y134839
X133647Y136489
X131482Y136489
X131482Y134839
X116647Y134839
X116647Y136489
X114482Y136489
X114482Y134839
T10C.06299F089S550
X102171Y151300
X111029Y151300
T11C.092F066S550
X179855Y153947
X185029Y153947
T12C.101F069S658
X189375Y132450
X189375Y134500
X193625Y132450
X193625Y134500
X193625Y136550
X193625Y144950
X193625Y147000
X193625Y149050
X189375Y147000
X189375Y136550
X189375Y144950
X189375Y149050
T13C.118F069S658
X116467Y131339
X133467Y131339
X150467Y131339
X150467Y138349
X133467Y138349
X116467Y138349
T14C.14F035S900
X100000Y100000
X147500Y100000
X147500Y127500
X195000Y100000
X195000Y155000
X147500Y155000
X100000Y155000
M30
