G04    PCBFab2Solidwork
G04    Copyright (C) 2018  NhatKhai L. Nguyen
G04
G04    Please check LICENSE file for detail.
G04
G04 (created by PCBNEW-RS274X (2011-04-29 BZR 2986)-stable) date 8/3/2011 4:45:22 PM*
G01*
G70*
G90*
%MOIN*%
G04 Gerber Fmt 3.4, Leading zero omitted, Abs format*
%FSLAX34Y34*%
G04 APERTURE LIST*
%ADD10C,0.010000*%
%ADD11C,0.015000*%
%ADD12C,0.012000*%
%ADD13C,0.005000*%
%ADD14C,0.030000*%
%ADD15C,0.006000*%
%ADD16C,0.011800*%
%ADD17C,0.023600*%
%ADD18C,0.007000*%
%ADD19C,0.019700*%
%ADD20C,0.008000*%
%ADD21C,0.009900*%
G04 APERTURE END LIST*
G54D10*
G54D11*
X30000Y-20000D02*
X30000Y00000D01*
X00000Y-20000D02*
X30000Y-20000D01*
X00000Y00000D02*
X00000Y-20000D01*
X30000Y00000D02*
X00000Y00000D01*
G54D12*
X25936Y-01050D02*
X25907Y-01136D01*
X25907Y-01279D01*
X25936Y-01336D01*
X25964Y-01365D01*
X26021Y-01393D01*
X26079Y-01393D01*
X26136Y-01365D01*
X26164Y-01336D01*
X26193Y-01279D01*
X26221Y-01165D01*
X26250Y-01107D01*
X26279Y-01079D01*
X26336Y-01050D01*
X26393Y-01050D01*
X26450Y-01079D01*
X26479Y-01107D01*
X26507Y-01165D01*
X26507Y-01307D01*
X26479Y-01393D01*
X26536Y-02078D02*
X25764Y-01564D01*
X25907Y-02279D02*
X26507Y-02279D01*
X25907Y-02622D01*
X26507Y-02622D01*
X27279Y-01010D02*
X27279Y-01296D01*
X27107Y-00953D02*
X27707Y-01153D01*
X27107Y-01353D01*
X27136Y-01524D02*
X27107Y-01610D01*
X27107Y-01753D01*
X27136Y-01810D01*
X27164Y-01839D01*
X27221Y-01867D01*
X27279Y-01867D01*
X27336Y-01839D01*
X27364Y-01810D01*
X27393Y-01753D01*
X27421Y-01639D01*
X27450Y-01581D01*
X27479Y-01553D01*
X27536Y-01524D01*
X27593Y-01524D01*
X27650Y-01553D01*
X27679Y-01581D01*
X27707Y-01639D01*
X27707Y-01781D01*
X27679Y-01867D01*
X27136Y-02095D02*
X27107Y-02181D01*
X27107Y-02324D01*
X27136Y-02381D01*
X27164Y-02410D01*
X27221Y-02438D01*
X27279Y-02438D01*
X27336Y-02410D01*
X27364Y-02381D01*
X27393Y-02324D01*
X27421Y-02210D01*
X27450Y-02152D01*
X27479Y-02124D01*
X27536Y-02095D01*
X27593Y-02095D01*
X27650Y-02124D01*
X27679Y-02152D01*
X27707Y-02210D01*
X27707Y-02352D01*
X27679Y-02438D01*
X27393Y-02809D02*
X27107Y-02809D01*
X27707Y-02609D02*
X27393Y-02809D01*
X27707Y-03009D01*
X27507Y-03180D02*
X27507Y-03609D01*
X27764Y-03352D02*
X26993Y-03180D01*
X27250Y-03552D02*
X27250Y-03123D01*
X26993Y-03380D02*
X27764Y-03552D01*
X27164Y-03809D02*
X27136Y-03837D01*
X27107Y-03809D01*
X27136Y-03780D01*
X27164Y-03809D01*
X27107Y-03809D01*
X27479Y-03809D02*
X27450Y-03837D01*
X27421Y-03809D01*
X27450Y-03780D01*
X27479Y-03809D01*
X27421Y-03809D01*
X27707Y-04809D02*
X27707Y-04695D01*
X27679Y-04638D01*
X27650Y-04609D01*
X27564Y-04552D01*
X27450Y-04523D01*
X27221Y-04523D01*
X27164Y-04552D01*
X27136Y-04580D01*
X27107Y-04638D01*
X27107Y-04752D01*
X27136Y-04809D01*
X27164Y-04838D01*
X27221Y-04866D01*
X27364Y-04866D01*
X27421Y-04838D01*
X27450Y-04809D01*
X27479Y-04752D01*
X27479Y-04638D01*
X27450Y-04580D01*
X27421Y-04552D01*
X27364Y-04523D01*
X27650Y-05094D02*
X27679Y-05123D01*
X27707Y-05180D01*
X27707Y-05323D01*
X27679Y-05380D01*
X27650Y-05409D01*
X27593Y-05437D01*
X27536Y-05437D01*
X27450Y-05409D01*
X27107Y-05066D01*
X27107Y-05437D01*
X27336Y-05694D02*
X27336Y-06151D01*
X27707Y-06551D02*
X27707Y-06608D01*
X27679Y-06665D01*
X27650Y-06694D01*
X27593Y-06723D01*
X27479Y-06751D01*
X27336Y-06751D01*
X27221Y-06723D01*
X27164Y-06694D01*
X27136Y-06665D01*
X27107Y-06608D01*
X27107Y-06551D01*
X27136Y-06494D01*
X27164Y-06465D01*
X27221Y-06437D01*
X27336Y-06408D01*
X27479Y-06408D01*
X27593Y-06437D01*
X27650Y-06465D01*
X27679Y-06494D01*
X27707Y-06551D01*
X27707Y-07122D02*
X27707Y-07179D01*
X27679Y-07236D01*
X27650Y-07265D01*
X27593Y-07294D01*
X27479Y-07322D01*
X27336Y-07322D01*
X27221Y-07294D01*
X27164Y-07265D01*
X27136Y-07236D01*
X27107Y-07179D01*
X27107Y-07122D01*
X27136Y-07065D01*
X27164Y-07036D01*
X27221Y-07008D01*
X27336Y-06979D01*
X27479Y-06979D01*
X27593Y-07008D01*
X27650Y-07036D01*
X27679Y-07065D01*
X27707Y-07122D01*
X27707Y-07522D02*
X27707Y-07922D01*
X27107Y-07665D01*
X27707Y-08436D02*
X27707Y-08150D01*
X27421Y-08121D01*
X27450Y-08150D01*
X27479Y-08207D01*
X27479Y-08350D01*
X27450Y-08407D01*
X27421Y-08436D01*
X27364Y-08464D01*
X27221Y-08464D01*
X27164Y-08436D01*
X27136Y-08407D01*
X27107Y-08350D01*
X27107Y-08207D01*
X27136Y-08150D01*
X27164Y-08121D01*
X27507Y-08978D02*
X27107Y-08978D01*
X27736Y-08835D02*
X27307Y-08692D01*
X27307Y-09064D01*
X27707Y-09549D02*
X27707Y-09435D01*
X27679Y-09378D01*
X27650Y-09349D01*
X27564Y-09292D01*
X27450Y-09263D01*
X27221Y-09263D01*
X27164Y-09292D01*
X27136Y-09320D01*
X27107Y-09378D01*
X27107Y-09492D01*
X27136Y-09549D01*
X27164Y-09578D01*
X27221Y-09606D01*
X27364Y-09606D01*
X27421Y-09578D01*
X27450Y-09549D01*
X27479Y-09492D01*
X27479Y-09378D01*
X27450Y-09320D01*
X27421Y-09292D01*
X27364Y-09263D01*
X27336Y-09863D02*
X27336Y-10320D01*
X27707Y-10720D02*
X27707Y-10777D01*
X27679Y-10834D01*
X27650Y-10863D01*
X27593Y-10892D01*
X27479Y-10920D01*
X27336Y-10920D01*
X27221Y-10892D01*
X27164Y-10863D01*
X27136Y-10834D01*
X27107Y-10777D01*
X27107Y-10720D01*
X27136Y-10663D01*
X27164Y-10634D01*
X27221Y-10606D01*
X27336Y-10577D01*
X27479Y-10577D01*
X27593Y-10606D01*
X27650Y-10634D01*
X27679Y-10663D01*
X27707Y-10720D01*
X27707Y-11291D02*
X27707Y-11348D01*
X27679Y-11405D01*
X27650Y-11434D01*
X27593Y-11463D01*
X27479Y-11491D01*
X27336Y-11491D01*
X27221Y-11463D01*
X27164Y-11434D01*
X27136Y-11405D01*
X27107Y-11348D01*
X27107Y-11291D01*
X27136Y-11234D01*
X27164Y-11205D01*
X27221Y-11177D01*
X27336Y-11148D01*
X27479Y-11148D01*
X27593Y-11177D01*
X27650Y-11205D01*
X27679Y-11234D01*
X27707Y-11291D01*
X27107Y-12062D02*
X27107Y-11719D01*
X27107Y-11891D02*
X27707Y-11891D01*
X27621Y-11834D01*
X27564Y-11776D01*
X27536Y-11719D01*
X27107Y-13119D02*
X27393Y-12919D01*
X27107Y-12776D02*
X27707Y-12776D01*
X27707Y-13004D01*
X27679Y-13062D01*
X27650Y-13090D01*
X27593Y-13119D01*
X27507Y-13119D01*
X27450Y-13090D01*
X27421Y-13062D01*
X27393Y-13004D01*
X27393Y-12776D01*
X27136Y-13604D02*
X27107Y-13547D01*
X27107Y-13433D01*
X27136Y-13376D01*
X27193Y-13347D01*
X27421Y-13347D01*
X27479Y-13376D01*
X27507Y-13433D01*
X27507Y-13547D01*
X27479Y-13604D01*
X27421Y-13633D01*
X27364Y-13633D01*
X27307Y-13347D01*
X27507Y-13833D02*
X27107Y-13976D01*
X27507Y-14118D01*
X28207Y-00679D02*
X28807Y-00679D01*
X28207Y-01308D02*
X28493Y-01108D01*
X28207Y-00965D02*
X28807Y-00965D01*
X28807Y-01193D01*
X28779Y-01251D01*
X28750Y-01279D01*
X28693Y-01308D01*
X28607Y-01308D01*
X28550Y-01279D01*
X28521Y-01251D01*
X28493Y-01193D01*
X28493Y-00965D01*
X28207Y-01565D02*
X28807Y-01565D01*
X28236Y-01822D02*
X28207Y-01908D01*
X28207Y-02051D01*
X28236Y-02108D01*
X28264Y-02137D01*
X28321Y-02165D01*
X28379Y-02165D01*
X28436Y-02137D01*
X28464Y-02108D01*
X28493Y-02051D01*
X28521Y-01937D01*
X28550Y-01879D01*
X28579Y-01851D01*
X28636Y-01822D01*
X28693Y-01822D01*
X28750Y-01851D01*
X28779Y-01879D01*
X28807Y-01937D01*
X28807Y-02079D01*
X28779Y-02165D01*
X28236Y-02850D02*
X28207Y-02936D01*
X28207Y-03079D01*
X28236Y-03136D01*
X28264Y-03165D01*
X28321Y-03193D01*
X28379Y-03193D01*
X28436Y-03165D01*
X28464Y-03136D01*
X28493Y-03079D01*
X28521Y-02965D01*
X28550Y-02907D01*
X28579Y-02879D01*
X28636Y-02850D01*
X28693Y-02850D01*
X28750Y-02879D01*
X28779Y-02907D01*
X28807Y-02965D01*
X28807Y-03107D01*
X28779Y-03193D01*
X28207Y-03707D02*
X28521Y-03707D01*
X28579Y-03678D01*
X28607Y-03621D01*
X28607Y-03507D01*
X28579Y-03450D01*
X28236Y-03707D02*
X28207Y-03650D01*
X28207Y-03507D01*
X28236Y-03450D01*
X28293Y-03421D01*
X28350Y-03421D01*
X28407Y-03450D01*
X28436Y-03507D01*
X28436Y-03650D01*
X28464Y-03707D01*
X28207Y-03993D02*
X28607Y-03993D01*
X28550Y-03993D02*
X28579Y-04021D01*
X28607Y-04079D01*
X28607Y-04164D01*
X28579Y-04221D01*
X28521Y-04250D01*
X28207Y-04250D01*
X28521Y-04250D02*
X28579Y-04279D01*
X28607Y-04336D01*
X28607Y-04421D01*
X28579Y-04479D01*
X28521Y-04507D01*
X28207Y-04507D01*
X28607Y-04793D02*
X28007Y-04793D01*
X28579Y-04793D02*
X28607Y-04850D01*
X28607Y-04964D01*
X28579Y-05021D01*
X28550Y-05050D01*
X28493Y-05079D01*
X28321Y-05079D01*
X28264Y-05050D01*
X28236Y-05021D01*
X28207Y-04964D01*
X28207Y-04850D01*
X28236Y-04793D01*
X28207Y-05422D02*
X28236Y-05364D01*
X28293Y-05336D01*
X28807Y-05336D01*
X28236Y-05878D02*
X28207Y-05821D01*
X28207Y-05707D01*
X28236Y-05650D01*
X28293Y-05621D01*
X28521Y-05621D01*
X28579Y-05650D01*
X28607Y-05707D01*
X28607Y-05821D01*
X28579Y-05878D01*
X28521Y-05907D01*
X28464Y-05907D01*
X28407Y-05621D01*
X28207Y-06621D02*
X28807Y-06621D01*
X28807Y-06849D01*
X28779Y-06907D01*
X28750Y-06935D01*
X28693Y-06964D01*
X28607Y-06964D01*
X28550Y-06935D01*
X28521Y-06907D01*
X28493Y-06849D01*
X28493Y-06621D01*
X28207Y-07221D02*
X28607Y-07221D01*
X28493Y-07221D02*
X28550Y-07249D01*
X28579Y-07278D01*
X28607Y-07335D01*
X28607Y-07392D01*
X28207Y-07678D02*
X28236Y-07620D01*
X28264Y-07592D01*
X28321Y-07563D01*
X28493Y-07563D01*
X28550Y-07592D01*
X28579Y-07620D01*
X28607Y-07678D01*
X28607Y-07763D01*
X28579Y-07820D01*
X28550Y-07849D01*
X28493Y-07878D01*
X28321Y-07878D01*
X28264Y-07849D01*
X28236Y-07820D01*
X28207Y-07763D01*
X28207Y-07678D01*
X28236Y-08392D02*
X28207Y-08335D01*
X28207Y-08221D01*
X28236Y-08163D01*
X28264Y-08135D01*
X28321Y-08106D01*
X28493Y-08106D01*
X28550Y-08135D01*
X28579Y-08163D01*
X28607Y-08221D01*
X28607Y-08335D01*
X28579Y-08392D01*
X28236Y-08877D02*
X28207Y-08820D01*
X28207Y-08706D01*
X28236Y-08649D01*
X28293Y-08620D01*
X28521Y-08620D01*
X28579Y-08649D01*
X28607Y-08706D01*
X28607Y-08820D01*
X28579Y-08877D01*
X28521Y-08906D01*
X28464Y-08906D01*
X28407Y-08620D01*
X28236Y-09134D02*
X28207Y-09191D01*
X28207Y-09306D01*
X28236Y-09363D01*
X28293Y-09391D01*
X28321Y-09391D01*
X28379Y-09363D01*
X28407Y-09306D01*
X28407Y-09220D01*
X28436Y-09163D01*
X28493Y-09134D01*
X28521Y-09134D01*
X28579Y-09163D01*
X28607Y-09220D01*
X28607Y-09306D01*
X28579Y-09363D01*
X28236Y-09620D02*
X28207Y-09677D01*
X28207Y-09792D01*
X28236Y-09849D01*
X28293Y-09877D01*
X28321Y-09877D01*
X28379Y-09849D01*
X28407Y-09792D01*
X28407Y-09706D01*
X28436Y-09649D01*
X28493Y-09620D01*
X28521Y-09620D01*
X28579Y-09649D01*
X28607Y-09706D01*
X28607Y-09792D01*
X28579Y-09849D01*
X28207Y-10135D02*
X28607Y-10135D01*
X28807Y-10135D02*
X28779Y-10106D01*
X28750Y-10135D01*
X28779Y-10163D01*
X28807Y-10135D01*
X28750Y-10135D01*
X28607Y-10421D02*
X28207Y-10421D01*
X28550Y-10421D02*
X28579Y-10449D01*
X28607Y-10507D01*
X28607Y-10592D01*
X28579Y-10649D01*
X28521Y-10678D01*
X28207Y-10678D01*
X28607Y-11221D02*
X28121Y-11221D01*
X28064Y-11192D01*
X28036Y-11164D01*
X28007Y-11107D01*
X28007Y-11021D01*
X28036Y-10964D01*
X28236Y-11221D02*
X28207Y-11164D01*
X28207Y-11050D01*
X28236Y-10992D01*
X28264Y-10964D01*
X28321Y-10935D01*
X28493Y-10935D01*
X28550Y-10964D01*
X28579Y-10992D01*
X28607Y-11050D01*
X28607Y-11164D01*
X28579Y-11221D01*
G54D10*
X04600Y-11200D02*
X04600Y-00400D01*
X04600Y-00400D02*
X01300Y-00400D01*
X01300Y-00400D02*
X00700Y-01000D01*
X00700Y-01000D02*
X00700Y-10600D01*
X00700Y-10600D02*
X01200Y-11200D01*
X01200Y-11200D02*
X04600Y-11200D01*
X02000Y-06300D02*
X02000Y-05300D01*
X02400Y-05300D02*
X01400Y-05300D01*
X01400Y-05300D02*
X01400Y-06300D01*
X01400Y-06300D02*
X02400Y-06300D01*
X02400Y-06300D02*
X02400Y-05300D01*
G54D13*
X17000Y-02000D02*
X22900Y-02000D01*
X22900Y-01000D02*
X17000Y-01000D01*
G54D14*
X17000Y-02200D02*
X16996Y-02238D01*
X16984Y-02276D01*
X16966Y-02310D01*
X16941Y-02340D01*
X16911Y-02365D01*
X16877Y-02384D01*
X16840Y-02395D01*
X16801Y-02399D01*
X16763Y-02396D01*
X16726Y-02385D01*
X16691Y-02367D01*
X16661Y-02342D01*
X16635Y-02312D01*
X16617Y-02278D01*
X16605Y-02241D01*
X16601Y-02202D01*
X16604Y-02164D01*
X16615Y-02127D01*
X16632Y-02092D01*
X16657Y-02062D01*
X16686Y-02036D01*
X16720Y-02017D01*
X16758Y-02005D01*
X16796Y-02001D01*
X16834Y-02004D01*
X16872Y-02014D01*
X16907Y-02032D01*
X16937Y-02056D01*
X16963Y-02085D01*
X16982Y-02119D01*
X16995Y-02156D01*
X16999Y-02195D01*
X17000Y-02200D01*
G54D15*
X17000Y-02000D02*
X17000Y-01000D01*
X22900Y-01000D02*
X22900Y-02000D01*
G54D13*
X07750Y-15950D02*
X07750Y-16850D01*
X07750Y-16850D02*
X07250Y-16850D01*
X07250Y-16850D02*
X07250Y-15950D01*
X07250Y-15950D02*
X07750Y-15950D01*
X05750Y-15950D02*
X05750Y-16850D01*
X05750Y-16850D02*
X05250Y-16850D01*
X05250Y-16850D02*
X05250Y-15950D01*
X05250Y-15950D02*
X05750Y-15950D01*
X11750Y-15950D02*
X11750Y-16850D01*
X11750Y-16850D02*
X11250Y-16850D01*
X11250Y-16850D02*
X11250Y-15950D01*
X11250Y-15950D02*
X11750Y-15950D01*
X13750Y-15950D02*
X13750Y-16850D01*
X13750Y-16850D02*
X13250Y-16850D01*
X13250Y-16850D02*
X13250Y-15950D01*
X13250Y-15950D02*
X13750Y-15950D01*
X08350Y-07850D02*
X08349Y-07859D01*
X08346Y-07869D01*
X08341Y-07877D01*
X08335Y-07885D01*
X08327Y-07891D01*
X08319Y-07896D01*
X08310Y-07898D01*
X08300Y-07899D01*
X08291Y-07899D01*
X08282Y-07896D01*
X08273Y-07891D01*
X08266Y-07885D01*
X08259Y-07878D01*
X08255Y-07869D01*
X08252Y-07860D01*
X08251Y-07850D01*
X08251Y-07841D01*
X08254Y-07832D01*
X08258Y-07823D01*
X08265Y-07816D01*
X08272Y-07809D01*
X08280Y-07805D01*
X08290Y-07802D01*
X08299Y-07801D01*
X08308Y-07801D01*
X08318Y-07804D01*
X08326Y-07808D01*
X08334Y-07814D01*
X08340Y-07822D01*
X08345Y-07830D01*
X08348Y-07839D01*
X08349Y-07849D01*
X08350Y-07850D01*
X08300Y-08300D02*
X08300Y-07900D01*
X08300Y-07900D02*
X08900Y-07900D01*
X08900Y-07900D02*
X08900Y-08300D01*
X08900Y-08700D02*
X08900Y-09100D01*
X08900Y-09100D02*
X08300Y-09100D01*
X08300Y-09100D02*
X08300Y-08700D01*
X22300Y-03000D02*
X22299Y-03009D01*
X22296Y-03019D01*
X22291Y-03027D01*
X22285Y-03035D01*
X22277Y-03041D01*
X22269Y-03046D01*
X22260Y-03048D01*
X22250Y-03049D01*
X22241Y-03049D01*
X22232Y-03046D01*
X22223Y-03041D01*
X22216Y-03035D01*
X22209Y-03028D01*
X22205Y-03019D01*
X22202Y-03010D01*
X22201Y-03000D01*
X22201Y-02991D01*
X22204Y-02982D01*
X22208Y-02973D01*
X22215Y-02966D01*
X22222Y-02959D01*
X22230Y-02955D01*
X22240Y-02952D01*
X22249Y-02951D01*
X22258Y-02951D01*
X22268Y-02954D01*
X22276Y-02958D01*
X22284Y-02964D01*
X22290Y-02972D01*
X22295Y-02980D01*
X22298Y-02989D01*
X22299Y-02999D01*
X22300Y-03000D01*
X22250Y-03450D02*
X22250Y-03050D01*
X22250Y-03050D02*
X22850Y-03050D01*
X22850Y-03050D02*
X22850Y-03450D01*
X22850Y-03850D02*
X22850Y-04250D01*
X22850Y-04250D02*
X22250Y-04250D01*
X22250Y-04250D02*
X22250Y-03850D01*
X09350Y-13350D02*
X08450Y-13350D01*
X08450Y-13350D02*
X08450Y-12850D01*
X08450Y-12850D02*
X09350Y-12850D01*
X09350Y-12850D02*
X09350Y-13350D01*
X21400Y-03300D02*
X21400Y-04200D01*
X21400Y-04200D02*
X20900Y-04200D01*
X20900Y-04200D02*
X20900Y-03300D01*
X20900Y-03300D02*
X21400Y-03300D01*
X16450Y-03550D02*
X16450Y-04450D01*
X16450Y-04450D02*
X15950Y-04450D01*
X15950Y-04450D02*
X15950Y-03550D01*
X15950Y-03550D02*
X16450Y-03550D01*
X17450Y-03050D02*
X17449Y-03059D01*
X17446Y-03069D01*
X17441Y-03077D01*
X17435Y-03085D01*
X17427Y-03091D01*
X17419Y-03096D01*
X17410Y-03098D01*
X17400Y-03099D01*
X17391Y-03099D01*
X17382Y-03096D01*
X17373Y-03091D01*
X17366Y-03085D01*
X17359Y-03078D01*
X17355Y-03069D01*
X17352Y-03060D01*
X17351Y-03050D01*
X17351Y-03041D01*
X17354Y-03032D01*
X17358Y-03023D01*
X17365Y-03016D01*
X17372Y-03009D01*
X17380Y-03005D01*
X17390Y-03002D01*
X17399Y-03001D01*
X17408Y-03001D01*
X17418Y-03004D01*
X17426Y-03008D01*
X17434Y-03014D01*
X17440Y-03022D01*
X17445Y-03030D01*
X17448Y-03039D01*
X17449Y-03049D01*
X17450Y-03050D01*
X17400Y-03500D02*
X17400Y-03100D01*
X17400Y-03100D02*
X18000Y-03100D01*
X18000Y-03100D02*
X18000Y-03500D01*
X18000Y-03900D02*
X18000Y-04300D01*
X18000Y-04300D02*
X17400Y-04300D01*
X17400Y-04300D02*
X17400Y-03900D01*
G54D14*
X14323Y-17900D02*
X14318Y-17943D01*
X14306Y-17984D01*
X14285Y-18023D01*
X14258Y-18057D01*
X14224Y-18084D01*
X14186Y-18105D01*
X14144Y-18118D01*
X14101Y-18122D01*
X14059Y-18119D01*
X14017Y-18106D01*
X13978Y-18086D01*
X13944Y-18059D01*
X13916Y-18025D01*
X13896Y-17987D01*
X13882Y-17946D01*
X13878Y-17903D01*
X13881Y-17860D01*
X13893Y-17818D01*
X13913Y-17780D01*
X13940Y-17746D01*
X13973Y-17717D01*
X14011Y-17696D01*
X14053Y-17683D01*
X14096Y-17678D01*
X14138Y-17681D01*
X14180Y-17693D01*
X14219Y-17712D01*
X14253Y-17739D01*
X14282Y-17772D01*
X14303Y-17810D01*
X14317Y-17851D01*
X14322Y-17894D01*
X14323Y-17900D01*
G54D10*
X10000Y-18000D02*
X14000Y-18000D01*
X10000Y-19000D02*
X14000Y-19000D01*
X14000Y-19000D02*
X14000Y-18000D01*
X10000Y-18000D02*
X10000Y-19000D01*
G54D14*
X08323Y-17900D02*
X08318Y-17943D01*
X08306Y-17984D01*
X08285Y-18023D01*
X08258Y-18057D01*
X08224Y-18084D01*
X08186Y-18105D01*
X08144Y-18118D01*
X08101Y-18122D01*
X08059Y-18119D01*
X08017Y-18106D01*
X07978Y-18086D01*
X07944Y-18059D01*
X07916Y-18025D01*
X07896Y-17987D01*
X07882Y-17946D01*
X07878Y-17903D01*
X07881Y-17860D01*
X07893Y-17818D01*
X07913Y-17780D01*
X07940Y-17746D01*
X07973Y-17717D01*
X08011Y-17696D01*
X08053Y-17683D01*
X08096Y-17678D01*
X08138Y-17681D01*
X08180Y-17693D01*
X08219Y-17712D01*
X08253Y-17739D01*
X08282Y-17772D01*
X08303Y-17810D01*
X08317Y-17851D01*
X08322Y-17894D01*
X08323Y-17900D01*
G54D10*
X04000Y-18000D02*
X08000Y-18000D01*
X04000Y-19000D02*
X08000Y-19000D01*
X08000Y-19000D02*
X08000Y-18000D01*
X04000Y-18000D02*
X04000Y-19000D01*
G54D16*
X14600Y-02950D02*
X14600Y-02350D01*
X14600Y-03350D02*
X14350Y-02950D01*
X14350Y-02950D02*
X14850Y-02950D01*
X14850Y-02950D02*
X14600Y-03350D01*
G54D17*
X14091Y-04250D02*
X14088Y-04277D01*
X14080Y-04303D01*
X14067Y-04328D01*
X14050Y-04349D01*
X14028Y-04366D01*
X14004Y-04379D01*
X13978Y-04388D01*
X13950Y-04390D01*
X13924Y-04388D01*
X13898Y-04380D01*
X13873Y-04367D01*
X13852Y-04350D01*
X13834Y-04329D01*
X13821Y-04305D01*
X13813Y-04279D01*
X13810Y-04251D01*
X13812Y-04225D01*
X13819Y-04199D01*
X13832Y-04174D01*
X13849Y-04153D01*
X13870Y-04135D01*
X13894Y-04121D01*
X13920Y-04113D01*
X13948Y-04110D01*
X13974Y-04112D01*
X14000Y-04119D01*
X14025Y-04131D01*
X14047Y-04148D01*
X14065Y-04169D01*
X14078Y-04193D01*
X14087Y-04219D01*
X14090Y-04247D01*
X14091Y-04250D01*
G54D16*
X14050Y-02100D02*
X15150Y-02100D01*
X15150Y-02100D02*
X15150Y-03700D01*
X15150Y-03700D02*
X14050Y-03700D01*
X14050Y-03700D02*
X14050Y-02100D01*
G54D17*
X14050Y-03350D02*
X15100Y-03350D01*
G54D10*
X06900Y-08630D02*
X06830Y-08630D01*
X06910Y-08370D02*
X06830Y-08370D01*
X06500Y-08360D02*
X06570Y-08360D01*
X06510Y-08650D02*
X06560Y-08650D01*
G54D13*
X06500Y-08250D02*
X06500Y-08750D01*
X06500Y-08750D02*
X06900Y-08750D01*
X06900Y-08750D02*
X06900Y-08250D01*
X06900Y-08250D02*
X06500Y-08250D01*
G54D18*
X09700Y-03400D02*
X09686Y-03535D01*
X09647Y-03666D01*
X09583Y-03787D01*
X09496Y-03893D01*
X09391Y-03980D01*
X09271Y-04045D01*
X09140Y-04085D01*
X09004Y-04099D01*
X08869Y-04087D01*
X08738Y-04049D01*
X08617Y-03985D01*
X08511Y-03900D01*
X08423Y-03795D01*
X08357Y-03675D01*
X08316Y-03545D01*
X08301Y-03409D01*
X08312Y-03274D01*
X08350Y-03143D01*
X08412Y-03021D01*
X08497Y-02914D01*
X08601Y-02826D01*
X08720Y-02759D01*
X08850Y-02717D01*
X08986Y-02701D01*
X09121Y-02711D01*
X09253Y-02748D01*
X09375Y-02809D01*
X09482Y-02894D01*
X09572Y-02997D01*
X09639Y-03116D01*
X09682Y-03245D01*
X09699Y-03381D01*
X09700Y-03400D01*
G54D19*
X09900Y-03950D02*
X08150Y-03950D01*
X09850Y-02850D02*
X08100Y-02850D01*
G54D18*
X08100Y-02500D02*
X09900Y-02500D01*
X09900Y-02500D02*
X09900Y-04300D01*
X09900Y-04300D02*
X08100Y-04300D01*
X08100Y-04300D02*
X08100Y-02500D01*
G54D12*
X00915Y-12143D02*
X00915Y-11543D01*
X01143Y-11543D01*
X01201Y-11571D01*
X01229Y-11600D01*
X01258Y-11657D01*
X01258Y-11743D01*
X01229Y-11800D01*
X01201Y-11829D01*
X01143Y-11857D01*
X00915Y-11857D01*
X01515Y-12143D02*
X01515Y-11543D01*
X01715Y-11971D01*
X01915Y-11543D01*
X01915Y-12143D01*
X02315Y-11543D02*
X02372Y-11543D01*
X02429Y-11571D01*
X02458Y-11600D01*
X02487Y-11657D01*
X02515Y-11771D01*
X02515Y-11914D01*
X02487Y-12029D01*
X02458Y-12086D01*
X02429Y-12114D01*
X02372Y-12143D01*
X02315Y-12143D01*
X02258Y-12114D01*
X02229Y-12086D01*
X02201Y-12029D01*
X02172Y-11914D01*
X02172Y-11771D01*
X02201Y-11657D01*
X02229Y-11600D01*
X02258Y-11571D01*
X02315Y-11543D01*
X01214Y-13043D02*
X01014Y-12757D01*
X00871Y-13043D02*
X00871Y-12443D01*
X01099Y-12443D01*
X01157Y-12471D01*
X01185Y-12500D01*
X01214Y-12557D01*
X01214Y-12643D01*
X01185Y-12700D01*
X01157Y-12729D01*
X01099Y-12757D01*
X00871Y-12757D01*
X01585Y-12443D02*
X01699Y-12443D01*
X01757Y-12471D01*
X01814Y-12529D01*
X01842Y-12643D01*
X01842Y-12843D01*
X01814Y-12957D01*
X01757Y-13014D01*
X01699Y-13043D01*
X01585Y-13043D01*
X01528Y-13014D01*
X01471Y-12957D01*
X01442Y-12843D01*
X01442Y-12643D01*
X01471Y-12529D01*
X01528Y-12471D01*
X01585Y-12443D01*
X02443Y-12986D02*
X02414Y-13014D01*
X02328Y-13043D01*
X02271Y-13043D01*
X02186Y-13014D01*
X02128Y-12957D01*
X02100Y-12900D01*
X02071Y-12786D01*
X02071Y-12700D01*
X02100Y-12586D01*
X02128Y-12529D01*
X02186Y-12471D01*
X02271Y-12443D01*
X02328Y-12443D01*
X02414Y-12471D01*
X02443Y-12500D01*
X02700Y-13043D02*
X02700Y-12443D01*
X03043Y-13043D02*
X02786Y-12700D01*
X03043Y-12443D02*
X02700Y-12786D01*
X03300Y-12729D02*
X03500Y-12729D01*
X03586Y-13043D02*
X03300Y-13043D01*
X03300Y-12443D01*
X03586Y-12443D01*
X04186Y-13043D02*
X03986Y-12757D01*
X03843Y-13043D02*
X03843Y-12443D01*
X04071Y-12443D01*
X04129Y-12471D01*
X04157Y-12500D01*
X04186Y-12557D01*
X04186Y-12643D01*
X04157Y-12700D01*
X04129Y-12729D01*
X04071Y-12757D01*
X03843Y-12757D01*
X04300Y-13100D02*
X04757Y-13100D01*
X04900Y-13043D02*
X04900Y-12443D01*
X05186Y-13043D02*
X05186Y-12443D01*
X05529Y-13043D01*
X05529Y-12443D01*
X19190Y-01768D02*
X19190Y-01168D01*
X19418Y-01168D01*
X19476Y-01196D01*
X19504Y-01225D01*
X19533Y-01282D01*
X19533Y-01368D01*
X19504Y-01425D01*
X19476Y-01454D01*
X19418Y-01482D01*
X19190Y-01482D01*
X19790Y-01768D02*
X19790Y-01168D01*
X19990Y-01596D01*
X20190Y-01168D01*
X20190Y-01768D01*
X20790Y-01768D02*
X20447Y-01768D01*
X20619Y-01768D02*
X20619Y-01168D01*
X20562Y-01254D01*
X20504Y-01311D01*
X20447Y-01339D01*
X17446Y-00868D02*
X17446Y-00268D01*
X17646Y-00696D01*
X17846Y-00268D01*
X17846Y-00868D01*
X18246Y-00268D02*
X18360Y-00268D01*
X18418Y-00296D01*
X18475Y-00354D01*
X18503Y-00468D01*
X18503Y-00668D01*
X18475Y-00782D01*
X18418Y-00839D01*
X18360Y-00868D01*
X18246Y-00868D01*
X18189Y-00839D01*
X18132Y-00782D01*
X18103Y-00668D01*
X18103Y-00468D01*
X18132Y-00354D01*
X18189Y-00296D01*
X18246Y-00268D01*
X18675Y-00268D02*
X19018Y-00268D01*
X18847Y-00868D02*
X18847Y-00268D01*
X19332Y-00268D02*
X19446Y-00268D01*
X19504Y-00296D01*
X19561Y-00354D01*
X19589Y-00468D01*
X19589Y-00668D01*
X19561Y-00782D01*
X19504Y-00839D01*
X19446Y-00868D01*
X19332Y-00868D01*
X19275Y-00839D01*
X19218Y-00782D01*
X19189Y-00668D01*
X19189Y-00468D01*
X19218Y-00354D01*
X19275Y-00296D01*
X19332Y-00268D01*
X20190Y-00868D02*
X19990Y-00582D01*
X19847Y-00868D02*
X19847Y-00268D01*
X20075Y-00268D01*
X20133Y-00296D01*
X20161Y-00325D01*
X20190Y-00382D01*
X20190Y-00468D01*
X20161Y-00525D01*
X20133Y-00554D01*
X20075Y-00582D01*
X19847Y-00582D01*
X20304Y-00925D02*
X20761Y-00925D01*
X20904Y-00868D02*
X20904Y-00268D01*
X21132Y-00268D01*
X21190Y-00296D01*
X21218Y-00325D01*
X21247Y-00382D01*
X21247Y-00468D01*
X21218Y-00525D01*
X21190Y-00554D01*
X21132Y-00582D01*
X20904Y-00582D01*
X21447Y-00268D02*
X21590Y-00868D01*
X21704Y-00439D01*
X21818Y-00868D01*
X21961Y-00268D01*
X22533Y-00868D02*
X22333Y-00582D01*
X22190Y-00868D02*
X22190Y-00268D01*
X22418Y-00268D01*
X22476Y-00296D01*
X22504Y-00325D01*
X22533Y-00382D01*
X22533Y-00468D01*
X22504Y-00525D01*
X22476Y-00554D01*
X22418Y-00582D01*
X22190Y-00582D01*
G54D20*
X07193Y-15712D02*
X07059Y-15521D01*
X06964Y-15712D02*
X06964Y-15312D01*
X07117Y-15312D01*
X07155Y-15331D01*
X07174Y-15350D01*
X07193Y-15388D01*
X07193Y-15445D01*
X07174Y-15483D01*
X07155Y-15502D01*
X07117Y-15521D01*
X06964Y-15521D01*
X07326Y-15312D02*
X07574Y-15312D01*
X07440Y-15464D01*
X07498Y-15464D01*
X07536Y-15483D01*
X07555Y-15502D01*
X07574Y-15540D01*
X07574Y-15636D01*
X07555Y-15674D01*
X07536Y-15693D01*
X07498Y-15712D01*
X07383Y-15712D01*
X07345Y-15693D01*
X07326Y-15674D01*
X07955Y-15712D02*
X07726Y-15712D01*
X07840Y-15712D02*
X07840Y-15312D01*
X07802Y-15369D01*
X07764Y-15407D01*
X07726Y-15426D01*
X05293Y-15712D02*
X05159Y-15521D01*
X05064Y-15712D02*
X05064Y-15312D01*
X05217Y-15312D01*
X05255Y-15331D01*
X05274Y-15350D01*
X05293Y-15388D01*
X05293Y-15445D01*
X05274Y-15483D01*
X05255Y-15502D01*
X05217Y-15521D01*
X05064Y-15521D01*
X05426Y-15312D02*
X05674Y-15312D01*
X05540Y-15464D01*
X05598Y-15464D01*
X05636Y-15483D01*
X05655Y-15502D01*
X05674Y-15540D01*
X05674Y-15636D01*
X05655Y-15674D01*
X05636Y-15693D01*
X05598Y-15712D01*
X05483Y-15712D01*
X05445Y-15693D01*
X05426Y-15674D01*
X05826Y-15350D02*
X05845Y-15331D01*
X05883Y-15312D01*
X05979Y-15312D01*
X06017Y-15331D01*
X06036Y-15350D01*
X06055Y-15388D01*
X06055Y-15426D01*
X06036Y-15483D01*
X05807Y-15712D01*
X06055Y-15712D01*
X11093Y-15712D02*
X10959Y-15521D01*
X10864Y-15712D02*
X10864Y-15312D01*
X11017Y-15312D01*
X11055Y-15331D01*
X11074Y-15350D01*
X11093Y-15388D01*
X11093Y-15445D01*
X11074Y-15483D01*
X11055Y-15502D01*
X11017Y-15521D01*
X10864Y-15521D01*
X11226Y-15312D02*
X11474Y-15312D01*
X11340Y-15464D01*
X11398Y-15464D01*
X11436Y-15483D01*
X11455Y-15502D01*
X11474Y-15540D01*
X11474Y-15636D01*
X11455Y-15674D01*
X11436Y-15693D01*
X11398Y-15712D01*
X11283Y-15712D01*
X11245Y-15693D01*
X11226Y-15674D01*
X11721Y-15312D02*
X11760Y-15312D01*
X11798Y-15331D01*
X11817Y-15350D01*
X11836Y-15388D01*
X11855Y-15464D01*
X11855Y-15560D01*
X11836Y-15636D01*
X11817Y-15674D01*
X11798Y-15693D01*
X11760Y-15712D01*
X11721Y-15712D01*
X11683Y-15693D01*
X11664Y-15674D01*
X11645Y-15636D01*
X11626Y-15560D01*
X11626Y-15464D01*
X11645Y-15388D01*
X11664Y-15350D01*
X11683Y-15331D01*
X11721Y-15312D01*
X12893Y-15812D02*
X12759Y-15621D01*
X12664Y-15812D02*
X12664Y-15412D01*
X12817Y-15412D01*
X12855Y-15431D01*
X12874Y-15450D01*
X12893Y-15488D01*
X12893Y-15545D01*
X12874Y-15583D01*
X12855Y-15602D01*
X12817Y-15621D01*
X12664Y-15621D01*
X13045Y-15450D02*
X13064Y-15431D01*
X13102Y-15412D01*
X13198Y-15412D01*
X13236Y-15431D01*
X13255Y-15450D01*
X13274Y-15488D01*
X13274Y-15526D01*
X13255Y-15583D01*
X13026Y-15812D01*
X13274Y-15812D01*
X13464Y-15812D02*
X13540Y-15812D01*
X13579Y-15793D01*
X13598Y-15774D01*
X13636Y-15717D01*
X13655Y-15640D01*
X13655Y-15488D01*
X13636Y-15450D01*
X13617Y-15431D01*
X13579Y-15412D01*
X13502Y-15412D01*
X13464Y-15431D01*
X13445Y-15450D01*
X13426Y-15488D01*
X13426Y-15583D01*
X13445Y-15621D01*
X13464Y-15640D01*
X13502Y-15660D01*
X13579Y-15660D01*
X13617Y-15640D01*
X13636Y-15621D01*
X13655Y-15583D01*
X08099Y-08947D02*
X08118Y-08966D01*
X08137Y-09023D01*
X08137Y-09061D01*
X08118Y-09119D01*
X08080Y-09157D01*
X08042Y-09176D01*
X07965Y-09195D01*
X07908Y-09195D01*
X07832Y-09176D01*
X07794Y-09157D01*
X07756Y-09119D01*
X07737Y-09061D01*
X07737Y-09023D01*
X07756Y-08966D01*
X07775Y-08947D01*
X08137Y-08566D02*
X08137Y-08795D01*
X08137Y-08681D02*
X07737Y-08681D01*
X07794Y-08719D01*
X07832Y-08757D01*
X07851Y-08795D01*
X07737Y-08433D02*
X07737Y-08185D01*
X07889Y-08319D01*
X07889Y-08261D01*
X07908Y-08223D01*
X07927Y-08204D01*
X07965Y-08185D01*
X08061Y-08185D01*
X08099Y-08204D01*
X08118Y-08223D01*
X08137Y-08261D01*
X08137Y-08376D01*
X08118Y-08414D01*
X08099Y-08433D01*
X08137Y-07804D02*
X08137Y-08033D01*
X08137Y-07919D02*
X07737Y-07919D01*
X07794Y-07957D01*
X07832Y-07995D01*
X07851Y-08033D01*
X22103Y-02824D02*
X22084Y-02843D01*
X22027Y-02862D01*
X21989Y-02862D01*
X21931Y-02843D01*
X21893Y-02805D01*
X21874Y-02767D01*
X21855Y-02690D01*
X21855Y-02633D01*
X21874Y-02557D01*
X21893Y-02519D01*
X21931Y-02481D01*
X21989Y-02462D01*
X22027Y-02462D01*
X22084Y-02481D01*
X22103Y-02500D01*
X22484Y-02862D02*
X22255Y-02862D01*
X22369Y-02862D02*
X22369Y-02462D01*
X22331Y-02519D01*
X22293Y-02557D01*
X22255Y-02576D01*
X22617Y-02462D02*
X22865Y-02462D01*
X22731Y-02614D01*
X22789Y-02614D01*
X22827Y-02633D01*
X22846Y-02652D01*
X22865Y-02690D01*
X22865Y-02786D01*
X22846Y-02824D01*
X22827Y-02843D01*
X22789Y-02862D01*
X22674Y-02862D01*
X22636Y-02843D01*
X22617Y-02824D01*
X23208Y-02595D02*
X23208Y-02862D01*
X23112Y-02443D02*
X23017Y-02729D01*
X23265Y-02729D01*
X08453Y-12674D02*
X08434Y-12693D01*
X08377Y-12712D01*
X08339Y-12712D01*
X08281Y-12693D01*
X08243Y-12655D01*
X08224Y-12617D01*
X08205Y-12540D01*
X08205Y-12483D01*
X08224Y-12407D01*
X08243Y-12369D01*
X08281Y-12331D01*
X08339Y-12312D01*
X08377Y-12312D01*
X08434Y-12331D01*
X08453Y-12350D01*
X08834Y-12712D02*
X08605Y-12712D01*
X08719Y-12712D02*
X08719Y-12312D01*
X08681Y-12369D01*
X08643Y-12407D01*
X08605Y-12426D01*
X08967Y-12312D02*
X09215Y-12312D01*
X09081Y-12464D01*
X09139Y-12464D01*
X09177Y-12483D01*
X09196Y-12502D01*
X09215Y-12540D01*
X09215Y-12636D01*
X09196Y-12674D01*
X09177Y-12693D01*
X09139Y-12712D01*
X09024Y-12712D01*
X08986Y-12693D01*
X08967Y-12674D01*
X09367Y-12350D02*
X09386Y-12331D01*
X09424Y-12312D01*
X09520Y-12312D01*
X09558Y-12331D01*
X09577Y-12350D01*
X09596Y-12388D01*
X09596Y-12426D01*
X09577Y-12483D01*
X09348Y-12712D01*
X09596Y-12712D01*
X20826Y-02737D02*
X20959Y-03137D01*
X21093Y-02737D01*
X21245Y-03137D02*
X21321Y-03137D01*
X21360Y-03118D01*
X21379Y-03099D01*
X21417Y-03042D01*
X21436Y-02965D01*
X21436Y-02813D01*
X21417Y-02775D01*
X21398Y-02756D01*
X21360Y-02737D01*
X21283Y-02737D01*
X21245Y-02756D01*
X21226Y-02775D01*
X21207Y-02813D01*
X21207Y-02908D01*
X21226Y-02946D01*
X21245Y-02965D01*
X21283Y-02985D01*
X21360Y-02985D01*
X21398Y-02965D01*
X21417Y-02946D01*
X21436Y-02908D01*
X15876Y-02987D02*
X16009Y-03387D01*
X16143Y-02987D01*
X16333Y-03158D02*
X16295Y-03139D01*
X16276Y-03120D01*
X16257Y-03082D01*
X16257Y-03063D01*
X16276Y-03025D01*
X16295Y-03006D01*
X16333Y-02987D01*
X16410Y-02987D01*
X16448Y-03006D01*
X16467Y-03025D01*
X16486Y-03063D01*
X16486Y-03082D01*
X16467Y-03120D01*
X16448Y-03139D01*
X16410Y-03158D01*
X16333Y-03158D01*
X16295Y-03177D01*
X16276Y-03196D01*
X16257Y-03235D01*
X16257Y-03311D01*
X16276Y-03349D01*
X16295Y-03368D01*
X16333Y-03387D01*
X16410Y-03387D01*
X16448Y-03368D01*
X16467Y-03349D01*
X16486Y-03311D01*
X16486Y-03235D01*
X16467Y-03196D01*
X16448Y-03177D01*
X16410Y-03158D01*
X17443Y-02849D02*
X17424Y-02868D01*
X17367Y-02887D01*
X17329Y-02887D01*
X17271Y-02868D01*
X17233Y-02830D01*
X17214Y-02792D01*
X17195Y-02715D01*
X17195Y-02658D01*
X17214Y-02582D01*
X17233Y-02544D01*
X17271Y-02506D01*
X17329Y-02487D01*
X17367Y-02487D01*
X17424Y-02506D01*
X17443Y-02525D01*
X17671Y-02658D02*
X17633Y-02639D01*
X17614Y-02620D01*
X17595Y-02582D01*
X17595Y-02563D01*
X17614Y-02525D01*
X17633Y-02506D01*
X17671Y-02487D01*
X17748Y-02487D01*
X17786Y-02506D01*
X17805Y-02525D01*
X17824Y-02563D01*
X17824Y-02582D01*
X17805Y-02620D01*
X17786Y-02639D01*
X17748Y-02658D01*
X17671Y-02658D01*
X17633Y-02677D01*
X17614Y-02696D01*
X17595Y-02735D01*
X17595Y-02811D01*
X17614Y-02849D01*
X17633Y-02868D01*
X17671Y-02887D01*
X17748Y-02887D01*
X17786Y-02868D01*
X17805Y-02849D01*
X17824Y-02811D01*
X17824Y-02735D01*
X17805Y-02696D01*
X17786Y-02677D01*
X17748Y-02658D01*
X18014Y-02887D02*
X18090Y-02887D01*
X18129Y-02868D01*
X18148Y-02849D01*
X18186Y-02792D01*
X18205Y-02715D01*
X18205Y-02563D01*
X18186Y-02525D01*
X18167Y-02506D01*
X18129Y-02487D01*
X18052Y-02487D01*
X18014Y-02506D01*
X17995Y-02525D01*
X17976Y-02563D01*
X17976Y-02658D01*
X17995Y-02696D01*
X18014Y-02715D01*
X18052Y-02735D01*
X18129Y-02735D01*
X18167Y-02715D01*
X18186Y-02696D01*
X18205Y-02658D01*
X09743Y-19010D02*
X09143Y-19010D01*
X09143Y-18782D01*
X09171Y-18724D01*
X09200Y-18696D01*
X09257Y-18667D01*
X09343Y-18667D01*
X09400Y-18696D01*
X09429Y-18724D01*
X09457Y-18782D01*
X09457Y-19010D01*
X09743Y-18410D02*
X09143Y-18410D01*
X09571Y-18210D01*
X09143Y-18010D01*
X09743Y-18010D01*
X09143Y-17438D02*
X09143Y-17724D01*
X09429Y-17753D01*
X09400Y-17724D01*
X09371Y-17667D01*
X09371Y-17524D01*
X09400Y-17467D01*
X09429Y-17438D01*
X09486Y-17410D01*
X09629Y-17410D01*
X09686Y-17438D01*
X09714Y-17467D01*
X09743Y-17524D01*
X09743Y-17667D01*
X09714Y-17724D01*
X09686Y-17753D01*
X10597Y-17736D02*
X10568Y-17764D01*
X10482Y-17793D01*
X10425Y-17793D01*
X10340Y-17764D01*
X10282Y-17707D01*
X10254Y-17650D01*
X10225Y-17536D01*
X10225Y-17450D01*
X10254Y-17336D01*
X10282Y-17279D01*
X10340Y-17221D01*
X10425Y-17193D01*
X10482Y-17193D01*
X10568Y-17221D01*
X10597Y-17250D01*
X10854Y-17793D02*
X10854Y-17193D01*
X11197Y-17793D01*
X11197Y-17193D01*
X11397Y-17193D02*
X11740Y-17193D01*
X11569Y-17793D02*
X11569Y-17193D01*
X11797Y-17850D02*
X12254Y-17850D01*
X12511Y-17193D02*
X12625Y-17193D01*
X12683Y-17221D01*
X12740Y-17279D01*
X12768Y-17393D01*
X12768Y-17593D01*
X12740Y-17707D01*
X12683Y-17764D01*
X12625Y-17793D01*
X12511Y-17793D01*
X12454Y-17764D01*
X12397Y-17707D01*
X12368Y-17593D01*
X12368Y-17393D01*
X12397Y-17279D01*
X12454Y-17221D01*
X12511Y-17193D01*
X13026Y-17793D02*
X13026Y-17193D01*
X13254Y-17193D01*
X13312Y-17221D01*
X13340Y-17250D01*
X13369Y-17307D01*
X13369Y-17393D01*
X13340Y-17450D01*
X13312Y-17479D01*
X13254Y-17507D01*
X13026Y-17507D01*
X13540Y-17193D02*
X13883Y-17193D01*
X13712Y-17793D02*
X13712Y-17193D01*
X03843Y-19010D02*
X03243Y-19010D01*
X03243Y-18782D01*
X03271Y-18724D01*
X03300Y-18696D01*
X03357Y-18667D01*
X03443Y-18667D01*
X03500Y-18696D01*
X03529Y-18724D01*
X03557Y-18782D01*
X03557Y-19010D01*
X03843Y-18410D02*
X03243Y-18410D01*
X03671Y-18210D01*
X03243Y-18010D01*
X03843Y-18010D01*
X03443Y-17467D02*
X03843Y-17467D01*
X03214Y-17610D02*
X03643Y-17753D01*
X03643Y-17381D01*
X04686Y-17718D02*
X04486Y-17432D01*
X04343Y-17718D02*
X04343Y-17118D01*
X04571Y-17118D01*
X04629Y-17146D01*
X04657Y-17175D01*
X04686Y-17232D01*
X04686Y-17318D01*
X04657Y-17375D01*
X04629Y-17404D01*
X04571Y-17432D01*
X04343Y-17432D01*
X04943Y-17404D02*
X05143Y-17404D01*
X05229Y-17718D02*
X04943Y-17718D01*
X04943Y-17118D01*
X05229Y-17118D01*
X05686Y-17404D02*
X05486Y-17404D01*
X05486Y-17718D02*
X05486Y-17118D01*
X05772Y-17118D01*
X05857Y-17775D02*
X06314Y-17775D01*
X06571Y-17118D02*
X06685Y-17118D01*
X06743Y-17146D01*
X06800Y-17204D01*
X06828Y-17318D01*
X06828Y-17518D01*
X06800Y-17632D01*
X06743Y-17689D01*
X06685Y-17718D01*
X06571Y-17718D01*
X06514Y-17689D01*
X06457Y-17632D01*
X06428Y-17518D01*
X06428Y-17318D01*
X06457Y-17204D01*
X06514Y-17146D01*
X06571Y-17118D01*
X07086Y-17718D02*
X07086Y-17118D01*
X07314Y-17118D01*
X07372Y-17146D01*
X07400Y-17175D01*
X07429Y-17232D01*
X07429Y-17318D01*
X07400Y-17375D01*
X07372Y-17404D01*
X07314Y-17432D01*
X07086Y-17432D01*
X07600Y-17118D02*
X07943Y-17118D01*
X07772Y-17718D02*
X07772Y-17118D01*
X14114Y-01612D02*
X14114Y-01212D01*
X14209Y-01212D01*
X14267Y-01231D01*
X14305Y-01269D01*
X14324Y-01307D01*
X14343Y-01383D01*
X14343Y-01440D01*
X14324Y-01517D01*
X14305Y-01555D01*
X14267Y-01593D01*
X14209Y-01612D01*
X14114Y-01612D01*
X14724Y-01612D02*
X14495Y-01612D01*
X14609Y-01612D02*
X14609Y-01212D01*
X14571Y-01269D01*
X14533Y-01307D01*
X14495Y-01326D01*
X14971Y-01212D02*
X15010Y-01212D01*
X15048Y-01231D01*
X15067Y-01250D01*
X15086Y-01288D01*
X15105Y-01364D01*
X15105Y-01460D01*
X15086Y-01536D01*
X15067Y-01574D01*
X15048Y-01593D01*
X15010Y-01612D01*
X14971Y-01612D01*
X14933Y-01593D01*
X14914Y-01574D01*
X14895Y-01536D01*
X14876Y-01460D01*
X14876Y-01364D01*
X14895Y-01288D01*
X14914Y-01250D01*
X14933Y-01231D01*
X14971Y-01212D01*
X06137Y-08757D02*
X06137Y-08948D01*
X05737Y-08948D01*
X06137Y-08414D02*
X06137Y-08643D01*
X06137Y-08529D02*
X05737Y-08529D01*
X05794Y-08567D01*
X05832Y-08605D01*
X05851Y-08643D01*
X05737Y-08281D02*
X05737Y-08033D01*
X05889Y-08167D01*
X05889Y-08109D01*
X05908Y-08071D01*
X05927Y-08052D01*
X05965Y-08033D01*
X06061Y-08033D01*
X06099Y-08052D01*
X06118Y-08071D01*
X06137Y-08109D01*
X06137Y-08224D01*
X06118Y-08262D01*
X06099Y-08281D01*
G54D21*
X07612Y-03607D02*
X07612Y-03798D01*
X07212Y-03798D01*
X07612Y-03264D02*
X07612Y-03493D01*
X07612Y-03379D02*
X07212Y-03379D01*
X07269Y-03417D01*
X07307Y-03455D01*
X07326Y-03493D01*
X07612Y-02883D02*
X07612Y-03112D01*
X07612Y-02998D02*
X07212Y-02998D01*
X07269Y-03036D01*
X07307Y-03074D01*
X07326Y-03112D01*
M02*
