M48
;
;    PCBFab2Solidwork
;    Copyright (C) 2018  NhatKhai L. Nguyen
;
;    Please check LICENSE file for detail.
;
;DRILL file {PCBnew (2011-04-29 BZR 2986)-stable} date 8/3/2011 4:45:25 PM
;FORMAT={-:-/ absolute / inch / decimal}
FMAT,2
INCH,TZ
T1C0.015
T2C0.040
T3C0.042
T4C0.118
T5C0.145
T6C0.500
%
G90
G05
M72
T1
X0.055Y-0.075
X0.055Y-0.175
X0.055Y-0.325
X0.055Y-0.425
X0.075Y-1.650
X0.075Y-1.900
X0.077Y-1.163
X0.077Y-1.268
X0.080Y-1.478
X0.105Y-0.675
X0.105Y-0.775
X0.105Y-0.875
X0.105Y-0.975
X0.105Y-1.075
X0.155Y-0.325
X0.155Y-0.525
X0.205Y-0.075
X0.205Y-0.675
X0.205Y-0.775
X0.205Y-1.075
X0.205Y-1.475
X0.205Y-1.675
X0.205Y-1.825
X0.205Y-1.925
X0.235Y-1.275
X0.255Y-0.125
X0.255Y-0.425
X0.305Y-0.525
X0.305Y-0.675
X0.305Y-0.775
X0.305Y-1.075
X0.305Y-1.825
X0.355Y-0.075
X0.355Y-0.325
X0.355Y-1.925
X0.405Y-1.175
X0.405Y-1.375
X0.405Y-1.575
X0.405Y-1.775
X0.455Y-1.625
X0.465Y-1.275
X0.480Y-1.700
X0.505Y-0.075
X0.505Y-0.175
X0.505Y-0.675
X0.505Y-1.075
X0.505Y-1.175
X0.505Y-1.375
X0.505Y-1.475
X0.555Y-0.225
X0.580Y-0.150
X0.580Y-0.525
X0.605Y-0.675
X0.605Y-0.775
X0.605Y-1.075
X0.605Y-1.175
X0.605Y-1.275
X0.605Y-1.375
X0.605Y-1.475
X0.638Y-1.735
X0.655Y-0.075
X0.655Y-0.225
X0.655Y-0.450
X0.655Y-1.625
X0.705Y-0.521
X0.705Y-0.675
X0.705Y-0.775
X0.705Y-0.925
X0.705Y-1.125
X0.705Y-1.275
X0.705Y-1.375
X0.730Y-0.150
X0.755Y-0.225
X0.755Y-1.505
X0.780Y-0.450
X0.805Y-0.075
X0.805Y-0.675
X0.805Y-1.025
X0.805Y-1.225
X0.805Y-1.325
X0.830Y-0.525
X0.855Y-0.225
X0.855Y-1.625
X0.855Y-1.725
X0.855Y-1.875
X0.860Y-1.375
X0.905Y-0.150
X0.905Y-0.675
X0.920Y-1.515
X0.930Y-0.521
X0.955Y-0.075
X0.955Y-0.225
X0.980Y-1.250
X0.980Y-1.400
X1.005Y-0.675
X1.005Y-0.775
X1.005Y-0.875
X1.005Y-0.975
X1.005Y-1.075
X1.005Y-1.175
X1.005Y-1.575
X1.005Y-1.675
X1.005Y-1.775
X1.030Y-0.450
X1.055Y-0.150
X1.055Y-0.525
X1.055Y-1.325
X1.080Y-0.625
X1.080Y-0.775
X1.080Y-0.925
X1.080Y-1.100
X1.085Y-1.675
X1.105Y-0.075
X1.105Y-0.225
X1.105Y-1.275
X1.130Y-1.375
X1.180Y-0.650
X1.180Y-0.875
X1.180Y-1.225
X1.205Y-0.150
X1.205Y-0.225
X1.205Y-1.375
X1.205Y-1.525
X1.205Y-1.725
X1.230Y-0.450
X1.230Y-1.625
X1.255Y-0.075
X1.255Y-1.925
X1.280Y-1.075
X1.305Y-1.475
X1.305Y-1.700
X1.330Y-0.650
X1.330Y-1.350
X1.355Y-0.225
X1.380Y-1.300
X1.405Y-0.075
X1.405Y-1.075
X1.405Y-1.575
X1.405Y-1.700
X1.405Y-1.925
X1.430Y-0.875
X1.455Y-1.500
X1.473Y-0.600
X1.505Y-0.075
X1.505Y-0.450
X1.505Y-0.975
X1.505Y-1.675
X1.505Y-1.775
X1.505Y-1.875
X1.565Y-0.275
X1.580Y-1.475
X1.580Y-1.625
X1.590Y-0.490
X1.605Y-1.800
X1.605Y-1.950
X1.625Y-0.155
X1.630Y-1.275
X1.685Y-0.275
X1.730Y-1.450
X1.730Y-1.650
X1.825Y-1.795
X1.830Y-0.150
X1.845Y-0.235
X1.855Y-0.725
X1.855Y-1.950
X1.880Y-0.350
X1.905Y-0.550
X1.945Y-0.345
X1.955Y-1.625
X1.980Y-0.250
X2.005Y-1.500
X2.025Y-0.325
X2.055Y-1.800
X2.105Y-0.550
X2.105Y-1.950
X2.155Y-0.155
X2.230Y-1.550
X2.280Y-0.525
X2.280Y-1.675
X2.295Y-0.075
X2.325Y-0.235
X2.330Y-1.950
X2.335Y-0.125
X2.380Y-0.075
X2.385Y-0.425
X2.395Y-1.775
X2.405Y-0.650
X2.455Y-0.825
X2.455Y-1.525
X2.480Y-0.525
X2.480Y-1.025
X2.480Y-1.225
X2.505Y-0.075
X2.505Y-0.275
X2.530Y-1.950
X2.555Y-0.725
X2.555Y-1.400
X2.580Y-0.950
X2.580Y-1.800
X2.605Y-0.350
X2.630Y-1.150
X2.655Y-0.825
X2.655Y-1.550
X2.680Y-0.075
X2.685Y-0.525
X2.755Y-1.950
X2.780Y-1.425
X2.780Y-1.675
X2.795Y-0.345
X2.795Y-0.635
X2.795Y-0.775
X2.795Y-0.925
X2.795Y-1.075
X2.805Y-1.800
X2.830Y-1.225
X2.905Y-0.075
X2.905Y-0.250
X2.905Y-0.475
X2.905Y-0.700
X2.905Y-0.900
X2.905Y-1.050
X2.930Y-1.200
X2.930Y-1.400
X2.930Y-1.575
X2.930Y-1.775
X2.930Y-1.925
T2
X0.450Y-1.850
X0.550Y-1.850
X0.650Y-1.850
X0.750Y-1.850
X1.050Y-1.850
X1.150Y-1.850
X1.250Y-1.850
X1.350Y-1.850
X1.750Y-0.150
X2.250Y-0.150
T3
X0.420Y-0.167
X0.420Y-0.285
X0.420Y-0.403
X0.420Y-0.521
X0.420Y-0.639
X0.420Y-0.757
X0.420Y-0.875
X0.420Y-0.993
T4
X0.250Y-0.252
X0.250Y-0.909
T5
X1.640Y-0.650
X2.350Y-1.350
T6
X2.000Y-1.000
T0
M30
