M48
;
;    PCBFab2Solidwork
;    Copyright (C) 2018  NhatKhai L. Nguyen
;
;    Please check LICENSE file for detail.
;
;DRILL file {KiCad 4.0.0-rc1-stable} date 7/8/2016 10:08:58 AM
;FORMAT={-:-/ absolute / inch / decimal}
FMAT,2
INCH,TZ
T1C0.020
T2C0.032
T3C0.035
T4C0.039
T5C0.040
T6C0.040
T7C0.091
T8C0.118
T9C0.122
T10C0.160
%
G90
G05
M72
T1
X3.63Y-3.801
X3.63Y-4.801
X3.63Y-5.481
X3.64Y-5.941
X3.65Y-2.671
X3.68Y-2.241
X3.685Y-4.211
X3.7Y-6.531
X3.816Y-1.88
X3.86Y-4.641
X3.86Y-5.351
X3.93Y-3.981
X3.94Y-6.481
X4.Y-2.381
X4.2Y-3.181
X4.2Y-3.526
X4.2Y-4.266
X4.2Y-5.21
X4.2Y-5.54
X4.228Y-4.906
X4.228Y-5.606
X4.24Y-1.981
X4.24Y-6.481
X4.33Y-6.731
X4.335Y-3.711
X4.34Y-4.381
X4.44Y-4.881
X4.44Y-5.681
X4.54Y-6.481
X4.64Y-1.381
X4.84Y-6.481
X4.858Y-4.03
X4.8625Y-5.3925
X4.865Y-3.815
X4.866Y-5.614
X4.89Y-4.388
X4.908Y-5.408
X4.91Y-3.824
X4.91Y-6.721
X4.976Y-3.702
X4.976Y-5.28
X4.98Y-4.174
X4.98Y-5.675
X4.984Y-5.75
X4.984Y-5.8596
X4.985Y-5.8005
X4.985Y-5.9186
X4.986Y-5.9777
X4.995Y-5.57
X5.016Y-2.386
X5.034Y-4.424
X5.035Y-4.085
X5.065Y-3.98
X5.092Y-4.284
X5.095Y-4.235
X5.095Y-4.345
X5.098Y-4.024
X5.098Y-5.598
X5.099Y-5.866
X5.1Y-5.81
X5.1Y-5.925
X5.115Y-5.74
X5.1205Y-5.4245
X5.13Y-5.885
X5.1325Y-5.9425
X5.135Y-3.82
X5.135Y-5.825
X5.15Y-5.75
X5.17Y-3.526
X5.18Y-3.456
X5.22Y-6.179
X5.228Y-4.582
X5.234Y-4.076
X5.236Y-5.65
X5.26Y-3.221
X5.265Y-6.506
X5.286Y-3.966
X5.288Y-5.55
X5.31Y-4.105
X5.315Y-4.255
X5.325Y-5.481
X5.336Y-3.874
X5.342Y-3.96
X5.342Y-5.544
X5.3525Y-4.58
X5.3725Y-4.075
X5.374Y-5.767
X5.3775Y-5.655
X5.3875Y-6.1725
X5.3975Y-3.9725
X5.398Y-6.136
X5.4125Y-5.65
X5.427Y-5.962
X5.4325Y-4.57
X5.4425Y-5.6925
X5.446Y-4.116
X5.446Y-4.258
X5.448Y-4.332
X5.45Y-4.155
X5.465Y-6.435
X5.49Y-4.87
X5.525Y-4.745
X5.53Y-6.3175
X5.54Y-6.731
X5.5475Y-4.305
X5.565Y-5.6925
X5.5725Y-2.0825
X5.63Y-4.305
X5.63Y-5.693
X5.63Y-6.055
X5.64Y-1.381
X5.64Y-3.981
X5.64Y-4.5125
X5.64Y-6.481
X5.8175Y-3.2575
X5.8325Y-4.255
X5.855Y-3.155
X5.86Y-4.2275
X5.89Y-3.1675
X5.9175Y-3.195
X5.9275Y-3.3175
X5.94Y-4.981
X5.94Y-5.581
X5.94Y-6.481
X6.035Y-2.665
X6.04Y-4.481
X6.075Y-4.42
X6.075Y-5.19
X6.09Y-2.515
X6.1Y-6.731
X6.14Y-2.881
X6.16Y-2.281
X6.174Y-4.77
X6.215Y-4.5675
X6.221Y-4.255
X6.24Y-3.1225
X6.24Y-6.381
X6.245Y-4.2275
X6.26Y-4.576
X6.265Y-3.4625
X6.29Y-3.12
X6.3Y-4.825
X6.3Y-5.07
X6.302Y-5.0106
X6.302Y-5.1287
X6.305Y-4.9515
X6.328Y-4.446
X6.36Y-4.72
X6.418Y-4.75
X6.425Y-4.895
X6.44Y-1.381
X6.445Y-4.955
X6.445Y-5.02
X6.445Y-5.109
X6.461Y-4.899
X6.4625Y-4.5225
X6.515Y-5.14
X6.5175Y-4.9875
X6.5225Y-4.915
X6.54Y-6.081
X6.548Y-5.316
X6.56Y-4.801
X6.612Y-4.688
X6.63Y-6.371
X6.65Y-4.608
X6.6575Y-3.26
X6.6575Y-3.58
X6.666Y-4.696
X6.6975Y-4.8
X6.717Y-5.295
X6.72Y-4.8825
X6.75Y-3.5
X6.7525Y-4.7025
X6.7575Y-5.3325
X6.8115Y-3.259
X6.815Y-5.59
X6.84Y-2.371
X6.84Y-2.881
X6.85Y-5.47
X6.88Y-4.838
X6.885Y-3.355
X6.886Y-5.058
X6.896Y-4.986
X6.958Y-4.885
X6.96Y-5.205
X6.97Y-3.495
X7.04Y-4.671
X7.04Y-6.081
X7.05Y-1.745
X7.05Y-3.0725
X7.05Y-3.59
X7.055Y-2.565
X7.055Y-3.7825
X7.07Y-2.8425
X7.075Y-4.855
X7.1225Y-2.34
X7.1225Y-5.0675
X7.15Y-2.3975
X7.15Y-4.255
X7.15Y-4.99
X7.15Y-5.605
X7.1775Y-2.37
X7.1775Y-4.9125
X7.1775Y-5.5775
X7.205Y-2.425
X7.2075Y-4.2275
X7.2075Y-5.03
X7.2075Y-5.6325
X7.2275Y-3.555
X7.2275Y-4.75
X7.232Y-2.992
X7.234Y-5.55
X7.28Y-6.321
X7.29Y-4.181
X7.305Y-3.34
X7.305Y-3.435
X7.31Y-3.571
X7.31Y-3.75
X7.33Y-5.391
X7.365Y-2.207
X7.393Y-3.716
X7.44Y-3.376
X7.53Y-3.62
X7.54Y-1.381
X7.555Y-3.678
X7.57Y-3.625
X7.605Y-3.6675
X7.63Y-4.751
X7.63Y-5.281
X7.64Y-6.081
X7.67Y-3.79
X7.72Y-3.595
X7.725Y-3.7425
X7.75Y-2.2335
X7.75Y-4.021
X8.14Y-4.281
X8.24Y-3.681
X8.24Y-3.781
X8.24Y-6.081
X8.54Y-3.081
X8.54Y-4.181
X8.54Y-4.981
X8.54Y-5.281
X8.57Y-6.321
X8.64Y-1.381
X8.64Y-2.481
X8.64Y-2.681
X8.64Y-4.531
X8.6475Y-2.03
X8.7475Y-1.8335
X8.7475Y-1.8875
X8.7475Y-1.9425
X8.7725Y-1.807
X8.775Y-1.86
X8.775Y-1.915
X8.775Y-1.97
X8.7935Y-2.001
X8.84Y-6.081
X8.89Y-2.0775
X8.9Y-2.4675
X8.9Y-5.655
X8.9275Y-2.03
X8.9375Y-2.4275
X8.9375Y-4.3975
X8.9375Y-4.805
X8.99Y-2.3875
X8.99Y-3.5425
X8.99Y-3.96
X8.9975Y-1.807
X9.027Y-1.8335
X9.04Y-2.39
X9.04Y-2.67
X9.04Y-3.08
X9.0515Y-1.86
X9.057Y-1.915
X9.0615Y-1.97
X9.081Y-1.8875
X9.0815Y-2.
X9.09Y-2.1875
X9.092Y-1.9425
X9.115Y-3.231
X9.115Y-3.656
X9.115Y-3.856
X9.115Y-5.281
X9.14Y-2.506
X9.14Y-2.731
X9.2125Y-5.0775
X9.247Y-2.597
X9.248Y-2.862
X9.255Y-1.8335
X9.2825Y-1.807
X9.31Y-1.8875
X9.338Y-1.862
X9.365Y-1.9425
X9.365Y-3.803
X9.365Y-4.665
X9.37Y-5.5225
X9.39Y-5.02
X9.3925Y-1.915
X9.4025Y-2.93
X9.4025Y-3.5475
X9.4025Y-3.77
X9.4025Y-4.405
X9.4025Y-4.62
X9.4025Y-5.2575
X9.4025Y-5.4725
X9.42Y-2.
X9.425Y-3.445
X9.4275Y-2.5925
X9.4275Y-4.2925
X9.4275Y-5.145
X9.44Y-1.381
X9.4475Y-1.97
X9.47Y-2.75
X9.4725Y-3.595
X9.475Y-4.5
X9.48Y-2.795
X9.48Y-3.6525
X9.48Y-5.34
X9.495Y-5.29
X9.505Y-4.415
X9.511Y-4.505
X9.515Y-2.756
X9.515Y-5.32
X9.52Y-3.6
X9.52Y-3.64
X9.53Y-2.71
X9.5325Y-5.285
X9.535Y-4.45
X9.54Y-6.081
X9.5525Y-2.9175
X9.5525Y-3.765
X9.5525Y-4.615
X9.5525Y-5.465
X9.56Y-6.331
X9.62Y-5.63
X9.625Y-3.9575
X9.6275Y-3.08
X9.6375Y-4.775
X9.665Y-3.231
X9.665Y-4.106
X9.665Y-4.956
X10.04Y-1.581
X10.04Y-2.081
X10.08Y-3.581
X10.09Y-2.791
X10.1Y-4.431
X10.11Y-5.321
X10.11Y-6.021
X10.13Y-2.371
T2
X3.8903Y-4.112
X3.8903Y-4.212
X3.8903Y-4.737
X3.8903Y-4.837
X3.8903Y-5.437
X3.8903Y-5.537
X3.969Y-4.112
X3.969Y-4.212
X3.969Y-4.737
X3.969Y-4.837
X3.969Y-5.437
X3.969Y-5.537
T3
X3.69Y-2.001
X3.801Y-1.609
X3.801Y-1.673
T4
X6.135Y-3.725
X6.235Y-3.725
X6.315Y-3.725
X6.415Y-3.725
X9.884Y-2.622
X9.884Y-2.722
X9.884Y-2.802
X9.884Y-2.902
X9.884Y-3.472
X9.884Y-3.572
X9.884Y-3.652
X9.884Y-3.752
X9.884Y-4.322
X9.884Y-4.422
X9.884Y-4.502
X9.884Y-4.602
X9.884Y-5.172
X9.884Y-5.272
X9.884Y-5.352
X9.884Y-5.452
T5
X3.7559Y-2.4194
X3.7559Y-2.5375
X3.7559Y-2.6556
X3.7559Y-2.7737
X3.7559Y-3.2194
X3.7559Y-3.3375
X3.7559Y-3.4556
X3.7559Y-3.5737
X3.8741Y-2.4194
X3.8741Y-2.5375
X3.8741Y-2.6556
X3.8741Y-2.7737
X3.8741Y-2.8918
X3.8741Y-3.2194
X3.8741Y-3.3375
X3.8741Y-3.4556
X3.8741Y-3.5737
X3.8741Y-3.6918
X4.6902Y-1.9058
X4.6902Y-2.0058
X4.7902Y-1.9058
X4.7902Y-2.0058
X4.8902Y-1.9058
X4.8902Y-2.0058
X4.9902Y-1.9058
X4.9902Y-2.0058
X5.0902Y-1.9058
X5.0902Y-2.0058
X5.1902Y-1.9058
X5.1902Y-2.0058
X5.2902Y-1.9058
X5.2902Y-2.0058
X5.3902Y-1.9058
X5.3902Y-2.0058
X5.44Y-3.492
X5.44Y-3.57
X5.4902Y-1.9058
X5.4902Y-2.0058
X5.54Y-3.492
X5.54Y-3.57
X5.5902Y-1.9058
X5.5902Y-2.0058
X5.6902Y-1.9058
X5.6902Y-2.0058
X5.7902Y-1.9058
X5.7902Y-2.0058
X5.8902Y-1.9058
X5.8902Y-2.0058
X5.9902Y-1.9058
X5.9902Y-2.0058
X6.0902Y-1.9058
X6.0902Y-2.0058
X6.1902Y-1.9058
X6.1902Y-2.0058
X6.2902Y-1.9058
X6.2902Y-2.0058
X7.272Y-1.7656
X7.272Y-1.8656
X7.272Y-1.9656
X7.272Y-2.0656
X7.272Y-2.1656
X7.272Y-2.2656
X7.272Y-2.3656
X7.272Y-2.4656
X7.272Y-2.5656
X7.272Y-2.6656
X7.272Y-2.7656
X7.272Y-2.8656
X7.858Y-1.7656
X7.858Y-1.8656
X7.858Y-1.9656
X7.858Y-2.0656
X7.858Y-2.1656
X7.858Y-2.2656
X7.858Y-2.3656
X7.858Y-2.4656
X7.858Y-2.5656
X7.858Y-2.6656
X7.858Y-2.7656
X7.858Y-2.8656
T6
X3.7559Y-2.8918
X3.7559Y-3.6918
T7
X3.784Y-3.9258
X3.784Y-4.3982
X3.784Y-4.5508
X3.784Y-5.0232
X3.784Y-5.2508
X3.784Y-5.7232
X5.995Y-3.83
X6.535Y-3.83
X9.989Y-2.502
X9.989Y-3.042
X9.989Y-3.352
X9.989Y-3.892
X9.989Y-4.202
X9.989Y-4.742
X9.989Y-5.052
X9.989Y-5.592
T8
X3.5859Y-2.5044
X3.5859Y-2.8076
X3.5859Y-3.3044
X3.5859Y-3.6076
T9
X3.6719Y-1.606
X3.79Y-1.791
X3.9082Y-1.606
T10
X4.04Y-2.181
X4.04Y-5.898
X9.734Y-2.181
X9.734Y-5.898
T0
M30
